<svg id="Layer_1" data-name="Layer 1" xmlns="http://www.w3.org/2000/svg" viewBox="0 0 120 36"><defs><style>.cls-1{fill:#229bd7;}.cls-1,.cls-2,.cls-3,.cls-6,.cls-7{fill-rule:evenodd;}.cls-2,.cls-4{fill:#0165ad;}.cls-3{fill:#ebebeb;}.cls-5,.cls-6{fill:#fff;}.cls-7{fill:#ec6313;}</style></defs><title>Iserve Logo-03</title><path class="cls-1" d="M26.74,18a9.39,9.39,0,0,1-1.6,5.26l0,0,6,3.46,0-.05A16.28,16.28,0,0,0,33.66,18Zm-1.63,5.3,6,3.46A16.38,16.38,0,0,1,25,32.44l-.1.05-3.46-6,.08,0a9.52,9.52,0,0,0,3.63-3.15ZM21.4,26.49a9.38,9.38,0,0,1-4.07.92h-.55v6.92h.55a16.28,16.28,0,0,0,7.53-1.84l-3.46-6Zm-4.62.91v6.92a16.34,16.34,0,0,1-7.72-2.24L9,32l3.46-6,.07,0a9.31,9.31,0,0,0,4.28,1.32ZM12.43,26a9.31,9.31,0,0,1-3.15-3.15l0,0-6,3.46,0,.05A16.51,16.51,0,0,0,9,32l3.46-6ZM9.25,22.84A9.37,9.37,0,0,1,7.92,18H1a16.33,16.33,0,0,0,2.26,8.3Z"/><path class="cls-2" d="M17.33,34.28A16.28,16.28,0,1,0,1,18,16.31,16.31,0,0,0,17.33,34.28Z"/><path class="cls-3" d="M31.55,10h0a16.56,16.56,0,0,0-6.24-6.22h0a16.32,16.32,0,0,0-8-2.07h-.55A16.28,16.28,0,0,0,8.56,4.22h0a16.45,16.45,0,0,0-5.7,6.21h0A16.28,16.28,0,0,0,1,17.88V18H7.92v-.1a9.36,9.36,0,0,1,.93-4v0A9.46,9.46,0,0,1,12,10.23l0,0A9.37,9.37,0,0,1,16.78,8.6h.55a9.3,9.3,0,0,1,4.51,1.15h0a9.46,9.46,0,0,1,3.69,3.68h0A9.43,9.43,0,0,1,26.74,18V18h6.92v0A16.22,16.22,0,0,0,31.55,10Z"/><path class="cls-2" d="M12.14,4.89h0c-.45-.9,0-1,0-1a.74.74,0,0,1,.19-.3.87.87,0,0,1,.48-.24.78.78,0,0,1,.21,0h0a1.1,1.1,0,0,1,.26.06,1.39,1.39,0,0,1,.28.12,1.09,1.09,0,0,1,.37.37.92.92,0,0,1,.11.5c.07,0,.18,0,.18.33s-.05.34-.09.35a.91.91,0,0,1-.61,1,.87.87,0,0,1-1-.56s-.12,0-.29-.24-.11-.32-.06-.36Zm3.58,1.65c-.05-.21-.18-.63-.57-.62a3.39,3.39,0,0,1-1-.17L14.1,7v.17l-.29-.42c.26-.69-.26-.53-.26-.53s-.53.12,0,.58l0,.51-.1-.14h0L13.34,7h0l-.58-.9a3.12,3.12,0,0,1-.78.65c-.34.19-.25.62-.18.82A1.76,1.76,0,0,0,12,8a3.88,3.88,0,0,0,2,0v0a3.85,3.85,0,0,0,1.78-1,1.5,1.5,0,0,0-.06-.42Z"/><path class="cls-2" d="M8.93,6.78a.15.15,0,0,0-.23,0l-.08.07a.48.48,0,0,0-.08.4.81.81,0,0,1,0,.11l-.2-.12a3,3,0,0,0-.88-.31.69.69,0,0,0-.55.16,7,7,0,0,0-.82.72,6.22,6.22,0,0,0-.72.82.71.71,0,0,0-.16.56,2.66,2.66,0,0,0,.31.87l.12.2a.29.29,0,0,1-.11,0,.48.48,0,0,0-.4.08l-.08.08a.16.16,0,0,0,0,.23.93.93,0,0,0,.14.14.16.16,0,0,0,.24,0l.22-.21.09-.09h0a.09.09,0,0,0,0,0,1.18,1.18,0,0,0,.36.92l.49.42a1.4,1.4,0,0,0,.43.24.18.18,0,0,0,.19,0,0,0,0,0,1,.07,0c.06.07.13.13.19.19a.18.18,0,0,0,.28,0L8,12.06a.18.18,0,0,0,0-.29l-.15-.15c.37-.32.72-.65,1.07-1s.67-.7,1-1.07l.15.15a.18.18,0,0,0,.29,0l.22-.22a.18.18,0,0,0,0-.28L10.4,9a0,0,0,0,1,0-.07.21.21,0,0,0,0-.19,1.4,1.4,0,0,0-.24-.43C10,8.16,9.88,8,9.73,7.84a1.17,1.17,0,0,0-.92-.36h0v0l.08-.09.22-.22a.16.16,0,0,0,0-.24.93.93,0,0,0-.14-.14Zm-3,3.3a3.19,3.19,0,0,1-.38-.91.07.07,0,0,1,0-.05h0l0,0a3.55,3.55,0,0,1,.81-1,3.75,3.75,0,0,1,1-.81l0,0h.05a3.19,3.19,0,0,1,.91.38l0,0C8,8,7.56,8.42,7.14,8.84s-.8.84-1.18,1.29l0-.05ZM7,11a.38.38,0,1,1,0-.54A.38.38,0,0,1,7,11ZM9,9.43a.14.14,0,0,1,0,.16l-.53.53h0l-.53.54a.16.16,0,0,1-.16,0,.12.12,0,0,1-.08-.13c0-.11,0-.27,0-.35l.41-.41.41-.41c.08-.08.23-.06.35-.05A.12.12,0,0,1,9,9.43Zm.29-.78a.38.38,0,1,1,0-.54A.38.38,0,0,1,9.3,8.65Z"/><path class="cls-2" d="M26.51,8.43a.28.28,0,1,0-.39,0A.26.26,0,0,0,26.51,8.43Z"/><path class="cls-2" d="M26.9,9.56l-.35-.35a.15.15,0,0,0-.22,0l-.76.63a.16.16,0,0,0,0,.23l0,0-.5.67a.09.09,0,0,0,0,.13l.1.1a.09.09,0,0,0,.13,0l.68-.51,0,0a.17.17,0,0,0,.23,0l.64-.77A.16.16,0,0,0,26.9,9.56Z"/><path class="cls-2" d="M27.18,9.31a.27.27,0,0,0,0-.37.26.26,0,0,0-.38,0,.27.27,0,0,0,0,.37A.26.26,0,0,0,27.18,9.31Z"/><path class="cls-2" d="M24.89,8.48l-.25-.25a.1.1,0,0,0-.15,0l-.35.26a.12.12,0,0,0,0,.16l0,0-.54.67a.06.06,0,0,0,0,.09l.07.07a.06.06,0,0,0,.09,0L24.45,9l0,0a.12.12,0,0,0,.17,0l.25-.35A.1.1,0,0,0,24.89,8.48Z"/><path class="cls-2" d="M25.09,8.3a.19.19,0,0,0,0-.26.18.18,0,0,0-.27,0,.19.19,0,0,0,0,.26A.18.18,0,0,0,25.09,8.3Z"/><path class="cls-2" d="M26.8,10.89a.09.09,0,0,0,0-.13l-.21-.21a.09.09,0,0,0-.13,0l-.45.37a.11.11,0,0,0,0,.14l0,0-.29.39a.05.05,0,0,0,0,.08l.06.06a0,0,0,0,0,.07,0l.4-.29,0,0a.09.09,0,0,0,.13,0Z"/><circle class="cls-4" cx="26.85" cy="10.5" r="0.16"/><path class="cls-2" d="M26.25,8.74s0,0,0,0l-.37-.37a.16.16,0,0,0-.23,0l-.52.39a.17.17,0,0,0,0,.24l0,0-.82,1a.1.1,0,0,0,0,.14l.1.1a.1.1,0,0,0,.14,0l1-.82,0,0a.18.18,0,0,0,.24,0l0-.06L27,8.33l.18-.18a.56.56,0,0,1,.11.47l.05.05a.67.67,0,0,1,.75.75h0a1.67,1.67,0,0,0,.09-2.26.14.14,0,0,0,0-.19A.13.13,0,0,0,28,7a1.68,1.68,0,0,0-2.26.1h0a.64.64,0,0,1,.74.74l.06.06A.56.56,0,0,1,27,8l-.18.19-.56.55Zm0,0Z"/><path class="cls-2" d="M31.18,13.3l.06-.2c.2-.16.31-.28.48-.18a.23.23,0,0,1,.11.27l-.08.3c.32.17.32.3.17.59a1.47,1.47,0,0,0,.19.21c.06.06.09.09.09.17s-.09.29-.33.27a.32.32,0,0,1-.17-.06l-.13-.09-.05.16a.58.58,0,0,1-.07.21l.07.23.11,0,0,.12h0l.45,1.67-1.54.41-.45-1.67.07,0-.06-.21.24,0,0-.11a.54.54,0,0,1-.29-.38l-.29-1a.21.21,0,0,1,.32-.19.2.2,0,0,1,.32-.19.2.2,0,0,1,.37-.1A.2.2,0,0,1,31.18,13.3Z"/><rect class="cls-5" x="31.49" y="13.02" width="0.05" height="1.69" transform="matrix(0.97, -0.26, 0.26, 0.97, -2.51, 8.56)"/><polygon class="cls-6" points="31.19 13.26 31.59 14.58 31.55 14.6 31.14 13.28 31.19 13.26"/><rect class="cls-5" x="30.84" y="13.37" width="0.05" height="0.48" transform="matrix(0.97, -0.25, 0.25, 0.97, -2.44, 8.27)"/><polygon class="cls-6" points="30.45 13.5 30.52 13.75 30.47 13.77 30.4 13.51 30.45 13.5"/><rect class="cls-5" x="30.14" y="13.68" width="0.05" height="0.46" transform="translate(-2.64 8.71) rotate(-15.75)"/><path class="cls-2" d="M30.09,14.94a.51.51,0,0,0,.09.18,2.39,2.39,0,0,1-.23.51.38.38,0,0,1-.22.18l-1.06.45a.92.92,0,0,1-.43.11.73.73,0,0,1-.68-.49l-.48-1.8a.74.74,0,0,1,.41-.82.51.51,0,0,1,.24-.07L29.05,13a.3.3,0,0,1,.25.07c.22.18.43.38.62.57a.24.24,0,0,0-.13.21Z"/><path class="cls-6" d="M30.48,15.79a.06.06,0,0,1-.05.08.07.07,0,1,1,0-.13A.06.06,0,0,1,30.48,15.79Z"/><path class="cls-6" d="M30.55,16a.07.07,0,1,1-.14,0,.08.08,0,0,1,.05-.09A.07.07,0,0,1,30.55,16Z"/><path class="cls-6" d="M29.21,14.47a.49.49,0,0,1-.35.6.49.49,0,1,1,.35-.6Z"/><polygon class="cls-6" points="31.18 13.73 30.99 13.78 30.98 13.73 31.17 13.68 31.18 13.73"/><polygon class="cls-6" points="30.78 13.86 30.61 13.9 30.6 13.86 30.76 13.81 30.78 13.86"/><polygon class="cls-6" points="31.17 13.8 31.04 13.83 31.02 13.79 31.15 13.75 31.17 13.8"/><rect class="cls-5" x="30.32" y="13.93" width="0.16" height="0.05" transform="translate(-2.97 11.67) rotate(-20.74)"/><polygon class="cls-2" points="28.95 14.41 28.95 14.41 28.95 14.41 28.94 14.41 28.94 14.41 28.94 14.41 28.94 14.41 28.94 14.41 28.94 14.41 28.94 14.41 28.94 14.41 28.93 14.41 28.93 14.41 28.93 14.41 28.93 14.4 28.93 14.4 28.93 14.4 28.93 14.4 28.93 14.4 28.93 14.4 28.92 14.4 28.92 14.4 28.92 14.4 28.92 14.4 28.92 14.4 28.92 14.4 28.92 14.4 28.91 14.4 28.91 14.4 28.91 14.4 28.91 14.4 28.91 14.4 28.91 14.4 28.91 14.4 28.91 14.4 28.91 14.4 28.9 14.4 28.9 14.4 28.9 14.4 28.9 14.39 28.9 14.39 28.9 14.39 28.9 14.39 28.9 14.39 28.89 14.39 28.89 14.39 28.89 14.39 28.89 14.39 28.89 14.39 28.89 14.39 28.89 14.39 28.89 14.39 28.88 14.39 28.89 14.39 28.89 14.43 28.9 14.44 28.91 14.47 28.91 14.48 28.91 14.49 28.91 14.49 28.91 14.5 28.91 14.5 28.91 14.51 28.91 14.51 28.91 14.51 28.91 14.52 28.91 14.52 28.91 14.52 28.91 14.53 28.91 14.53 28.91 14.53 28.91 14.53 28.91 14.54 28.91 14.54 28.91 14.54 28.91 14.54 28.91 14.54 28.91 14.55 28.91 14.55 28.91 14.55 28.91 14.55 28.91 14.55 28.91 14.55 28.91 14.56 28.91 14.56 28.91 14.56 28.91 14.56 28.91 14.56 28.91 14.56 28.91 14.56 28.91 14.56 28.91 14.57 28.91 14.57 28.91 14.57 28.9 14.57 28.9 14.57 28.9 14.57 28.9 14.57 28.9 14.57 28.9 14.57 28.9 14.57 28.9 14.58 28.9 14.58 28.9 14.58 28.9 14.58 28.9 14.58 28.9 14.58 28.9 14.58 28.9 14.58 28.9 14.58 28.9 14.58 28.9 14.59 28.89 14.59 28.89 14.59 28.89 14.59 28.89 14.59 28.89 14.59 28.89 14.59 28.89 14.59 28.89 14.59 28.89 14.59 28.89 14.6 28.89 14.6 28.88 14.6 28.88 14.56 28.86 14.51 28.85 14.46 28.84 14.44 28.84 14.44 28.84 14.44 28.84 14.44 28.84 14.44 28.84 14.44 28.84 14.44 28.84 14.44 28.83 14.44 28.83 14.44 28.83 14.44 28.83 14.44 28.83 14.44 28.83 14.44 28.83 14.43 28.82 14.43 28.82 14.43 28.82 14.43 28.82 14.43 28.82 14.43 28.82 14.43 28.82 14.43 28.82 14.43 28.82 14.43 28.81 14.43 28.81 14.43 28.81 14.43 28.81 14.43 28.81 14.43 28.81 14.43 28.8 14.43 28.8 14.43 28.8 14.43 28.8 14.43 28.8 14.43 28.8 14.43 28.8 14.43 28.8 14.43 28.79 14.43 28.79 14.42 28.79 14.42 28.79 14.42 28.79 14.42 28.79 14.42 28.79 14.42 28.79 14.42 28.78 14.42 28.78 14.42 28.78 14.42 28.8 14.51 28.83 14.62 28.83 14.62 28.83 14.62 28.82 14.62 28.82 14.62 28.82 14.62 28.82 14.62 28.81 14.62 28.81 14.62 28.81 14.62 28.81 14.62 28.8 14.62 28.8 14.62 28.8 14.62 28.8 14.62 28.8 14.62 28.8 14.62 28.79 14.62 28.79 14.62 28.79 14.62 28.79 14.62 28.79 14.62 28.79 14.62 28.79 14.62 28.79 14.61 28.78 14.61 28.78 14.61 28.78 14.61 28.78 14.61 28.78 14.61 28.78 14.61 28.78 14.61 28.78 14.61 28.77 14.61 28.77 14.61 28.77 14.61 28.77 14.61 28.77 14.61 28.77 14.61 28.77 14.61 28.77 14.61 28.77 14.61 28.77 14.61 28.77 14.61 28.76 14.61 28.76 14.6 28.76 14.6 28.76 14.6 28.76 14.6 28.76 14.6 28.76 14.6 28.76 14.6 28.76 14.6 28.76 14.6 28.75 14.6 28.75 14.6 28.75 14.6 28.75 14.6 28.75 14.6 28.75 14.6 28.75 14.59 28.75 14.59 28.75 14.59 28.75 14.59 28.75 14.59 28.74 14.59 28.74 14.59 28.74 14.59 28.74 14.59 28.74 14.58 28.74 14.58 28.74 14.58 28.74 14.58 28.73 14.58 28.73 14.58 28.73 14.57 28.73 14.57 28.73 14.57 28.73 14.57 28.73 14.57 28.73 14.56 28.73 14.56 28.72 14.56 28.72 14.56 28.72 14.55 28.72 14.55 28.72 14.54 28.71 14.54 28.71 14.53 28.71 14.52 28.7 14.48 28.7 14.47 28.69 14.46 28.68 14.46 28.65 14.47 28.64 14.47 28.64 14.47 28.64 14.48 28.64 14.48 28.64 14.48 28.64 14.48 28.64 14.48 28.64 14.48 28.64 14.48 28.64 14.48 28.64 14.48 28.64 14.48 28.63 14.49 28.63 14.49 28.63 14.49 28.63 14.49 28.63 14.49 28.63 14.49 28.63 14.49 28.63 14.49 28.63 14.49 28.63 14.49 28.63 14.49 28.63 14.5 28.63 14.5 28.63 14.5 28.62 14.5 28.62 14.5 28.62 14.5 28.62 14.5 28.62 14.5 28.62 14.5 28.62 14.5 28.62 14.51 28.62 14.51 28.62 14.51 28.62 14.51 28.62 14.51 28.62 14.51 28.62 14.51 28.61 14.51 28.61 14.51 28.61 14.51 28.61 14.51 28.61 14.52 28.61 14.52 28.61 14.52 28.61 14.52 28.61 14.52 28.61 14.52 28.61 14.52 28.61 14.52 28.61 14.52 28.61 14.52 28.61 14.52 28.61 14.53 28.6 14.53 28.6 14.53 28.6 14.53 28.6 14.53 28.6 14.53 28.6 14.53 28.6 14.53 28.6 14.53 28.6 14.53 28.6 14.53 28.6 14.54 28.6 14.54 28.6 14.54 28.6 14.54 28.59 14.54 28.59 14.54 28.59 14.54 28.59 14.54 28.59 14.54 28.59 14.54 28.59 14.54 28.59 14.54 28.59 14.55 28.59 14.55 28.59 14.55 28.59 14.55 28.59 14.55 28.59 14.55 28.59 14.55 28.59 14.55 28.59 14.55 28.58 14.55 28.58 14.56 28.58 14.56 28.58 14.56 28.58 14.56 28.58 14.56 28.58 14.56 28.58 14.56 28.58 14.56 28.58 14.56 28.58 14.56 28.58 14.56 28.57 14.57 28.57 14.57 28.57 14.57 28.57 14.57 28.57 14.57 28.57 14.57 28.57 14.57 28.57 14.57 28.57 14.57 28.57 14.57 28.57 14.57 28.57 14.58 28.57 14.58 28.57 14.58 28.57 14.58 28.56 14.58 28.56 14.58 28.56 14.58 28.56 14.58 28.56 14.58 28.56 14.58 28.56 14.59 28.56 14.59 28.56 14.59 28.56 14.59 28.56 14.59 28.56 14.59 28.56 14.59 28.56 14.59 28.56 14.59 28.55 14.59 28.55 14.59 28.55 14.6 28.55 14.6 28.55 14.6 28.55 14.6 28.55 14.6 28.55 14.6 28.55 14.6 28.55 14.6 28.55 14.6 28.55 14.6 28.55 14.6 28.55 14.61 28.55 14.61 28.55 14.61 28.54 14.61 28.54 14.61 28.54 14.61 28.54 14.61 28.54 14.61 28.54 14.61 28.54 14.61 28.54 14.61 28.54 14.62 28.54 14.62 28.54 14.62 28.54 14.62 28.54 14.62 28.54 14.62 28.53 14.62 28.53 14.62 28.53 14.62 28.53 14.62 28.53 14.62 28.53 14.63 28.53 14.63 28.53 14.63 28.53 14.63 28.53 14.63 28.53 14.63 28.53 14.63 28.53 14.63 28.53 14.63 28.52 14.63 28.52 14.63 28.52 14.64 28.52 14.64 28.52 14.64 28.52 14.64 28.52 14.64 28.52 14.64 28.52 14.64 28.52 14.64 28.52 14.64 28.52 14.64 28.52 14.64 28.52 14.64 28.52 14.65 28.52 14.65 28.52 14.65 28.52 14.65 28.51 14.65 28.51 14.65 28.51 14.65 28.51 14.65 28.51 14.65 28.51 14.65 28.51 14.66 28.51 14.66 28.51 14.66 28.51 14.66 28.51 14.66 28.51 14.66 28.5 14.66 28.5 14.66 28.5 14.66 28.5 14.66 28.5 14.66 28.5 14.66 28.5 14.67 28.5 14.67 28.5 14.67 28.5 14.67 28.5 14.67 28.5 14.67 28.5 14.67 28.5 14.67 28.5 14.67 28.5 14.67 28.49 14.68 28.49 14.68 28.49 14.68 28.49 14.68 28.49 14.68 28.49 14.68 28.49 14.68 28.49 14.68 28.49 14.68 28.49 14.68 28.49 14.69 28.49 14.69 28.49 14.69 28.48 14.69 28.48 14.69 28.48 14.69 28.48 14.69 28.48 14.69 28.48 14.69 28.48 14.69 28.48 14.69 28.48 14.7 28.48 14.7 28.48 14.7 28.48 14.7 28.48 14.7 28.48 14.7 28.48 14.7 28.48 14.7 28.47 14.7 28.47 14.7 28.47 14.7 28.47 14.71 28.47 14.71 28.47 14.71 28.47 14.71 28.47 14.71 28.47 14.71 28.47 14.71 28.47 14.71 28.47 14.71 28.46 14.71 28.46 14.71 28.46 14.71 28.46 14.72 28.46 14.72 28.46 14.72 28.46 14.72 28.46 14.72 28.46 14.72 28.46 14.72 28.46 14.72 28.46 14.72 28.46 14.72 28.46 14.72 28.46 14.73 28.46 14.73 28.45 14.73 28.45 14.73 28.45 14.73 28.45 14.73 28.45 14.73 28.45 14.73 28.45 14.73 28.45 14.73 28.45 14.73 28.45 14.74 28.45 14.74 28.45 14.74 28.47 14.83 28.47 14.83 28.47 14.83 28.47 14.82 28.47 14.82 28.48 14.82 28.48 14.82 28.48 14.82 28.48 14.82 28.48 14.82 28.48 14.82 28.48 14.82 28.48 14.82 28.48 14.82 28.48 14.81 28.48 14.81 28.48 14.81 28.48 14.81 28.48 14.81 28.48 14.81 28.48 14.81 28.49 14.81 28.49 14.81 28.49 14.81 28.49 14.8 28.49 14.8 28.49 14.8 28.49 14.8 28.49 14.8 28.49 14.8 28.49 14.8 28.49 14.8 28.49 14.8 28.5 14.8 28.5 14.8 28.5 14.79 28.5 14.79 28.5 14.79 28.5 14.79 28.5 14.79 28.5 14.79 28.5 14.79 28.5 14.79 28.5 14.79 28.5 14.79 28.5 14.79 28.5 14.79 28.5 14.78 28.5 14.78 28.51 14.78 28.51 14.78 28.51 14.78 28.51 14.78 28.51 14.78 28.51 14.78 28.51 14.78 28.51 14.78 28.51 14.78 28.51 14.77 28.51 14.77 28.51 14.77 28.52 14.77 28.52 14.77 28.52 14.77 28.52 14.77 28.52 14.77 28.52 14.77 28.52 14.77 28.52 14.76 28.52 14.76 28.52 14.76 28.52 14.76 28.52 14.76 28.52 14.76 28.52 14.76 28.52 14.76 28.52 14.76 28.53 14.76 28.53 14.76 28.53 14.75 28.53 14.75 28.53 14.75 28.53 14.75 28.53 14.75 28.53 14.75 28.53 14.75 28.53 14.75 28.53 14.75 28.53 14.75 28.53 14.74 28.53 14.74 28.54 14.74 28.54 14.74 28.54 14.74 28.54 14.74 28.54 14.74 28.54 14.74 28.54 14.74 28.54 14.74 28.54 14.74 28.54 14.73 28.54 14.73 28.54 14.73 28.54 14.73 28.54 14.73 28.54 14.73 28.55 14.73 28.55 14.73 28.55 14.73 28.55 14.73 28.55 14.73 28.55 14.72 28.55 14.72 28.55 14.72 28.55 14.72 28.55 14.72 28.55 14.72 28.55 14.72 28.55 14.72 28.55 14.72 28.55 14.72 28.56 14.72 28.56 14.71 28.56 14.71 28.56 14.71 28.56 14.71 28.56 14.71 28.56 14.71 28.56 14.71 28.56 14.71 28.56 14.71 28.56 14.71 28.56 14.71 28.56 14.7 28.57 14.7 28.57 14.7 28.57 14.7 28.57 14.7 28.57 14.7 28.57 14.7 28.57 14.7 28.57 14.7 28.57 14.7 28.57 14.7 28.57 14.7 28.57 14.69 28.57 14.69 28.57 14.69 28.57 14.69 28.57 14.69 28.58 14.69 28.58 14.69 28.58 14.69 28.58 14.69 28.58 14.69 28.58 14.69 28.58 14.68 28.58 14.68 28.58 14.68 28.58 14.68 28.58 14.68 28.58 14.68 28.59 14.68 28.59 14.68 28.59 14.68 28.59 14.68 28.59 14.67 28.59 14.67 28.59 14.67 28.59 14.67 28.59 14.67 28.59 14.67 28.59 14.67 28.59 14.67 28.59 14.67 28.59 14.67 28.59 14.66 28.59 14.66 28.6 14.66 28.6 14.66 28.6 14.66 28.6 14.66 28.6 14.66 28.6 14.66 28.6 14.66 28.6 14.66 28.6 14.66 28.6 14.65 28.6 14.65 28.6 14.65 28.6 14.65 28.61 14.65 28.61 14.65 28.61 14.65 28.61 14.65 28.61 14.65 28.61 14.65 28.61 14.64 28.61 14.64 28.61 14.64 28.61 14.64 28.61 14.64 28.61 14.64 28.61 14.64 28.61 14.64 28.61 14.64 28.61 14.64 28.61 14.64 28.62 14.64 28.62 14.63 28.62 14.63 28.62 14.63 28.62 14.63 28.62 14.63 28.62 14.63 28.62 14.63 28.62 14.63 28.62 14.63 28.62 14.63 28.62 14.63 28.62 14.62 28.63 14.62 28.63 14.62 28.63 14.62 28.63 14.62 28.63 14.62 28.63 14.62 28.63 14.62 28.63 14.62 28.63 14.62 28.63 14.62 28.63 14.61 28.63 14.61 28.63 14.61 28.63 14.61 28.64 14.61 28.64 14.61 28.64 14.61 28.64 14.61 28.64 14.61 28.64 14.61 28.64 14.61 28.64 14.6 28.64 14.6 28.64 14.6 28.64 14.6 28.64 14.6 28.64 14.6 28.64 14.6 28.64 14.6 28.65 14.6 28.65 14.6 28.65 14.6 28.65 14.59 28.65 14.59 28.65 14.59 28.65 14.59 28.65 14.59 28.65 14.59 28.65 14.59 28.65 14.59 28.65 14.59 28.65 14.59 28.66 14.59 28.66 14.58 28.66 14.58 28.66 14.58 28.66 14.58 28.66 14.58 28.66 14.58 28.66 14.58 28.66 14.58 28.66 14.58 28.66 14.58 28.66 14.57 28.66 14.57 28.66 14.57 28.66 14.57 28.66 14.57 28.67 14.57 28.67 14.57 28.67 14.57 28.67 14.57 28.67 14.57 28.67 14.56 28.67 14.56 28.67 14.56 28.67 14.56 28.67 14.56 28.67 14.56 28.68 14.56 28.68 14.57 28.68 14.57 28.68 14.57 28.68 14.58 28.68 14.58 28.68 14.59 28.68 14.59 28.69 14.59 28.69 14.59 28.69 14.6 28.69 14.6 28.69 14.6 28.69 14.6 28.7 14.61 28.7 14.61 28.7 14.61 28.7 14.61 28.7 14.61 28.7 14.62 28.7 14.62 28.7 14.62 28.71 14.62 28.71 14.62 28.71 14.62 28.71 14.63 28.71 14.63 28.71 14.63 28.71 14.63 28.71 14.63 28.71 14.63 28.72 14.63 28.72 14.64 28.72 14.64 28.72 14.64 28.72 14.64 28.72 14.64 28.72 14.64 28.72 14.64 28.72 14.64 28.73 14.64 28.73 14.65 28.73 14.65 28.73 14.65 28.73 14.65 28.73 14.65 28.73 14.65 28.73 14.65 28.73 14.65 28.73 14.65 28.73 14.65 28.74 14.65 28.74 14.66 28.74 14.66 28.74 14.66 28.74 14.66 28.74 14.66 28.74 14.66 28.74 14.66 28.74 14.66 28.75 14.66 28.75 14.66 28.75 14.66 28.75 14.66 28.75 14.66 28.75 14.67 28.75 14.67 28.75 14.67 28.75 14.67 28.75 14.67 28.75 14.67 28.75 14.67 28.76 14.67 28.76 14.67 28.76 14.67 28.76 14.67 28.76 14.67 28.76 14.67 28.76 14.67 28.76 14.67 28.76 14.68 28.76 14.68 28.76 14.68 28.77 14.68 28.77 14.68 28.77 14.68 28.77 14.68 28.77 14.68 28.77 14.68 28.77 14.68 28.77 14.68 28.77 14.68 28.77 14.68 28.77 14.68 28.78 14.68 28.78 14.68 28.78 14.68 28.78 14.68 28.78 14.68 28.78 14.69 28.78 14.69 28.78 14.69 28.78 14.69 28.79 14.69 28.79 14.69 28.79 14.69 28.79 14.69 28.79 14.69 28.79 14.69 28.79 14.69 28.79 14.69 28.8 14.69 28.8 14.69 28.8 14.69 28.8 14.69 28.8 14.69 28.8 14.69 28.8 14.69 28.8 14.69 28.81 14.69 28.81 14.69 28.81 14.69 28.81 14.69 28.81 14.69 28.82 14.69 28.82 14.69 28.82 14.69 28.82 14.69 28.82 14.69 28.82 14.7 28.83 14.7 28.83 14.7 28.83 14.7 28.84 14.7 28.84 14.7 28.84 14.7 28.84 14.69 28.85 14.69 28.85 14.69 28.86 14.72 28.87 14.76 28.87 14.76 28.87 14.76 28.87 14.76 28.87 14.76 28.88 14.76 28.88 14.76 28.88 14.76 28.88 14.76 28.88 14.76 28.88 14.76 28.88 14.76 28.88 14.76 28.89 14.76 28.89 14.76 28.89 14.76 28.89 14.76 28.89 14.76 28.89 14.76 28.89 14.76 28.89 14.76 28.89 14.77 28.9 14.77 28.9 14.77 28.9 14.77 28.9 14.77 28.9 14.77 28.9 14.77 28.9 14.77 28.91 14.77 28.91 14.77 28.91 14.77 28.91 14.77 28.91 14.77 28.91 14.77 28.91 14.77 28.91 14.77 28.91 14.77 28.92 14.77 28.92 14.77 28.92 14.77 28.92 14.77 28.92 14.77 28.92 14.78 28.92 14.78 28.93 14.78 28.93 14.78 28.93 14.78 28.93 14.78 28.93 14.78 28.93 14.78 28.92 14.74 28.91 14.69 28.9 14.68 28.91 14.68 28.91 14.68 28.91 14.68 28.92 14.68 28.92 14.67 28.92 14.67 28.92 14.67 28.92 14.67 28.92 14.67 28.93 14.67 28.93 14.67 28.93 14.67 28.93 14.66 28.93 14.66 28.93 14.66 28.93 14.66 28.93 14.66 28.93 14.66 28.93 14.66 28.94 14.66 28.94 14.66 28.94 14.66 28.94 14.65 28.94 14.65 28.94 14.65 28.94 14.65 28.94 14.65 28.94 14.65 28.94 14.65 28.94 14.65 28.94 14.65 28.95 14.65 28.95 14.65 28.95 14.64 28.95 14.64 28.95 14.64 28.95 14.64 28.95 14.64 28.95 14.64 28.95 14.64 28.95 14.64 28.95 14.64 28.98 14.73 28.98 14.73 28.98 14.73 28.98 14.73 28.98 14.73 28.98 14.73 28.98 14.73 28.98 14.73 28.99 14.73 28.99 14.73 28.99 14.73 28.99 14.73 28.99 14.73 28.99 14.73 28.99 14.73 29 14.73 29 14.73 29 14.74 29 14.74 29 14.74 29 14.74 29 14.74 29 14.74 29.01 14.74 29.01 14.74 29.01 14.74 29.01 14.74 29.01 14.74 29.01 14.74 29.01 14.74 29.02 14.74 29.02 14.74 29.02 14.74 29.02 14.74 29.02 14.74 29.02 14.74 29.02 14.74 29.02 14.74 29.02 14.74 29.03 14.74 29.03 14.74 29.03 14.74 29.03 14.75 29.03 14.75 29.03 14.75 29.03 14.75 29.04 14.75 29.04 14.75 29.04 14.75 29.04 14.75 28.95 14.44 28.95 14.41"/><polygon class="cls-2" points="19.66 3.09 19.66 3.1 19.65 3.1 19.64 3.11 19.64 3.11 19.63 3.12 19.62 3.12 19.61 3.13 19.61 3.14 19.6 3.15 19.59 3.15 19.59 3.16 19.58 3.16 19.57 3.17 19.56 3.17 19.56 3.18 19.55 3.19 19.54 3.2 19.54 3.2 19.53 3.21 19.52 3.21 19.51 3.22 19.51 3.23 19.5 3.23 19.49 3.24 19.48 3.25 19.48 3.25 19.47 3.26 19.46 3.26 19.46 3.27 19.45 3.28 19.44 3.28 19.43 3.29 19.43 3.29 19.42 3.3 19.41 3.31 19.41 3.31 19.4 3.32 19.39 3.33 19.39 3.33 19.38 3.34 19.37 3.34 19.36 3.35 19.36 3.36 19.35 3.37 19.34 3.37 19.33 3.38 19.33 3.38 19.32 3.39 19.31 3.4 19.3 3.4 19.3 3.41 19.29 3.42 19.33 3.43 19.56 3.49 19.69 3.52 19.86 3.58 19.94 3.6 20 3.62 20.05 3.64 20.09 3.66 20.12 3.67 20.15 3.69 20.18 3.7 20.2 3.71 20.23 3.72 20.24 3.73 20.26 3.74 20.28 3.75 20.3 3.76 20.32 3.77 20.33 3.78 20.34 3.79 20.36 3.8 20.37 3.81 20.38 3.82 20.39 3.83 20.4 3.84 20.41 3.84 20.42 3.85 20.43 3.86 20.44 3.87 20.45 3.88 20.46 3.88 20.47 3.89 20.48 3.9 20.48 3.91 20.49 3.91 20.5 3.92 20.5 3.93 20.51 3.94 20.51 3.94 20.52 3.95 20.53 3.96 20.53 3.96 20.53 3.97 20.54 3.98 20.55 3.99 20.55 3.99 20.55 4 20.56 4 20.56 4.01 20.57 4.02 20.57 4.02 20.57 4.03 20.58 4.04 20.58 4.04 20.59 4.05 20.59 4.06 20.59 4.06 20.59 4.08 20.6 4.08 20.6 4.09 20.6 4.1 20.61 4.11 20.61 4.11 20.61 4.13 20.62 4.13 20.62 4.14 20.62 4.15 20.63 4.16 20.63 4.17 20.63 4.18 20.63 4.2 20.36 4.12 20.01 4.02 19.65 3.92 19.46 3.86 19.45 3.87 19.44 3.88 19.44 3.89 19.43 3.89 19.42 3.9 19.41 3.91 19.41 3.91 19.4 3.92 19.39 3.93 19.38 3.94 19.38 3.94 19.37 3.95 19.36 3.96 19.35 3.96 19.35 3.97 19.34 3.98 19.33 3.99 19.32 3.99 19.32 4 19.31 4.01 19.3 4.02 19.29 4.03 19.29 4.03 19.28 4.04 19.27 4.05 19.26 4.05 19.26 4.06 19.25 4.07 19.24 4.08 19.23 4.08 19.23 4.09 19.22 4.1 19.21 4.1 19.2 4.11 19.2 4.12 19.19 4.12 19.18 4.13 19.17 4.14 19.17 4.15 19.16 4.15 19.15 4.16 19.14 4.17 19.14 4.18 19.13 4.18 19.12 4.19 19.11 4.2 19.11 4.21 19.11 4.21 19.75 4.39 20.59 4.62 20.57 4.64 20.56 4.66 20.55 4.68 20.54 4.7 20.53 4.72 20.52 4.74 20.51 4.75 20.5 4.76 20.49 4.78 20.49 4.79 20.48 4.8 20.47 4.81 20.46 4.82 20.45 4.83 20.45 4.84 20.44 4.85 20.43 4.86 20.42 4.87 20.41 4.88 20.41 4.88 20.4 4.89 20.39 4.9 20.38 4.91 20.38 4.91 20.37 4.92 20.36 4.92 20.35 4.93 20.35 4.94 20.34 4.94 20.33 4.95 20.33 4.95 20.32 4.96 20.31 4.97 20.3 4.97 20.3 4.97 20.29 4.98 20.29 4.98 20.28 4.99 20.27 4.99 20.26 5 20.26 5 20.25 5 20.25 5.01 20.24 5.01 20.23 5.01 20.22 5.02 20.21 5.02 20.21 5.03 20.2 5.03 20.19 5.03 20.18 5.04 20.18 5.04 20.17 5.04 20.16 5.05 20.15 5.05 20.14 5.05 20.13 5.06 20.13 5.06 20.11 5.06 20.11 5.07 20.1 5.07 20.09 5.07 20.07 5.07 20.07 5.08 20.05 5.08 20.04 5.08 20.03 5.08 20.02 5.09 20.01 5.09 19.99 5.09 19.98 5.09 19.97 5.1 19.95 5.1 19.94 5.1 19.92 5.1 19.91 5.1 19.89 5.1 19.87 5.1 19.85 5.1 19.83 5.1 19.81 5.1 19.78 5.1 19.76 5.1 19.73 5.1 19.7 5.1 19.66 5.09 19.62 5.09 19.57 5.08 19.49 5.06 19.2 4.98 19.09 4.95 19.04 4.94 19.02 5.02 18.95 5.24 18.93 5.31 18.94 5.32 18.94 5.33 18.94 5.33 18.95 5.34 18.95 5.35 18.95 5.36 18.96 5.37 18.96 5.37 18.96 5.38 18.97 5.39 18.97 5.4 18.97 5.4 18.98 5.42 18.98 5.42 18.98 5.43 18.99 5.43 18.99 5.45 18.99 5.45 19 5.46 19 5.47 19 5.48 19.01 5.48 19.01 5.49 19.02 5.5 19.02 5.51 19.02 5.52 19.02 5.52 19.03 5.53 19.03 5.54 19.04 5.55 19.04 5.55 19.04 5.56 19.05 5.57 19.05 5.58 19.05 5.58 19.06 5.59 19.06 5.6 19.06 5.61 19.07 5.62 19.07 5.63 19.07 5.63 19.08 5.64 19.08 5.65 19.08 5.66 19.09 5.67 19.09 5.67 19.09 5.68 19.1 5.69 19.1 5.7 19.1 5.7 19.11 5.71 19.11 5.72 19.11 5.73 19.12 5.73 19.12 5.74 19.12 5.75 19.13 5.76 19.13 5.77 19.13 5.77 19.14 5.78 19.14 5.79 19.14 5.8 19.15 5.8 19.15 5.82 19.16 5.82 19.16 5.83 19.16 5.83 19.16 5.85 19.17 5.85 19.17 5.86 19.17 5.87 19.18 5.88 19.18 5.88 19.19 5.89 19.19 5.9 19.19 5.91 19.2 5.92 19.2 5.92 19.2 5.93 19.2 5.94 19.21 5.95 19.21 5.95 19.21 5.96 19.22 5.97 19.22 5.98 19.23 5.98 19.23 6 19.23 6 19.24 6.01 19.24 6.02 19.24 6.03 19.25 6.03 19.25 6.04 19.25 6.05 19.26 6.06 19.26 6.07 19.26 6.07 19.27 6.08 19.27 6.09 19.27 6.1 19.28 6.1 19.28 6.11 19.28 6.12 19.29 6.13 19.29 6.13 19.29 6.15 19.3 6.15 19.3 6.16 19.3 6.17 19.31 6.18 19.31 6.18 19.32 6.19 19.32 6.2 19.32 6.21 19.32 6.21 19.33 6.22 19.33 6.23 19.34 6.24 19.34 6.25 19.34 6.25 19.35 6.26 19.35 6.27 19.35 6.28 19.36 6.28 19.36 6.29 19.36 6.3 19.37 6.31 19.37 6.32 19.37 6.32 19.38 6.33 19.38 6.34 19.38 6.35 19.39 6.36 19.39 6.37 19.39 6.37 19.4 6.38 19.4 6.39 19.4 6.4 19.41 6.4 19.41 6.41 19.41 6.42 19.42 6.43 19.42 6.43 19.42 6.44 19.43 6.45 19.43 6.46 19.43 6.47 19.44 6.47 19.44 6.48 19.44 6.49 19.45 6.5 19.45 6.5 19.45 6.51 19.46 6.52 19.46 6.53 19.47 6.54 19.47 6.55 19.47 6.55 19.48 6.56 19.48 6.57 19.48 6.58 19.49 6.58 19.49 6.59 19.49 6.6 19.5 6.61 19.5 6.62 19.5 6.62 19.51 6.63 19.51 6.64 19.51 6.65 19.52 6.65 19.52 6.66 19.52 6.67 19.53 6.68 19.53 6.68 19.53 6.7 19.54 6.7 19.54 6.71 19.54 6.72 19.55 6.73 19.55 6.73 19.55 6.74 19.56 6.75 19.56 6.76 19.56 6.77 19.57 6.77 19.57 6.78 19.57 6.79 19.58 6.8 19.58 6.8 19.59 6.81 19.59 6.82 19.59 6.83 19.59 6.83 19.6 6.85 19.6 6.85 19.61 6.86 19.61 6.87 19.61 6.88 19.62 6.88 19.62 6.89 19.62 6.9 19.63 6.91 19.63 6.92 19.63 6.92 19.64 6.93 19.64 6.94 19.64 6.95 19.65 6.95 19.65 6.96 19.65 6.97 19.66 6.98 19.66 6.99 19.66 6.99 19.67 7 19.67 7.01 19.67 7.02 19.68 7.02 19.68 7.03 19.68 7.04 19.69 7.05 19.69 7.05 19.69 7.07 19.7 7.07 19.7 7.08 19.7 7.09 19.71 7.1 19.71 7.1 19.71 7.11 19.72 7.12 19.72 7.13 19.73 7.13 19.73 7.14 19.73 7.15 19.73 7.16 19.74 7.17 19.74 7.17 19.75 7.18 19.75 7.19 19.75 7.2 19.76 7.2 19.76 7.21 19.76 7.22 19.77 7.23 19.77 7.23 19.77 7.25 19.78 7.25 19.78 7.26 19.78 7.27 19.79 7.28 19.79 7.28 19.79 7.29 19.8 7.3 19.8 7.31 19.8 7.32 19.81 7.32 19.81 7.33 19.81 7.34 19.82 7.35 19.82 7.35 19.82 7.36 19.83 7.37 19.83 7.38 19.83 7.38 19.84 7.4 19.84 7.4 19.84 7.41 19.85 7.42 19.85 7.43 19.85 7.43 19.86 7.44 19.86 7.45 19.86 7.46 19.87 7.47 19.87 7.47 19.88 7.48 19.88 7.49 19.88 7.5 19.89 7.5 19.89 7.51 19.89 7.52 19.9 7.53 19.9 7.53 19.9 7.54 19.91 7.55 19.91 7.56 19.91 7.57 20.58 7.74 20.58 7.74 20.58 7.73 20.57 7.72 20.57 7.71 20.57 7.71 20.56 7.7 20.56 7.69 20.56 7.68 20.55 7.68 20.55 7.67 20.55 7.66 20.54 7.65 20.54 7.64 20.54 7.63 20.53 7.63 20.53 7.62 20.52 7.61 20.52 7.6 20.52 7.59 20.52 7.59 20.51 7.58 20.51 7.57 20.5 7.56 20.5 7.56 20.5 7.54 20.5 7.54 20.49 7.53 20.49 7.52 20.48 7.51 20.48 7.51 20.48 7.5 20.48 7.49 20.47 7.48 20.47 7.48 20.46 7.47 20.46 7.46 20.46 7.45 20.45 7.45 20.45 7.43 20.45 7.43 20.44 7.42 20.44 7.41 20.44 7.4 20.43 7.4 20.43 7.39 20.43 7.38 20.42 7.37 20.42 7.36 20.42 7.35 20.41 7.35 20.41 7.34 20.41 7.33 20.4 7.32 20.4 7.32 20.4 7.31 20.39 7.3 20.39 7.29 20.39 7.28 20.38 7.28 20.38 7.27 20.38 7.26 20.37 7.25 20.37 7.24 20.37 7.23 20.36 7.23 20.36 7.22 20.36 7.21 20.35 7.2 20.35 7.2 20.35 7.18 20.34 7.18 20.34 7.17 20.34 7.17 20.33 7.15 20.33 7.15 20.33 7.14 20.32 7.13 20.32 7.12 20.32 7.12 20.31 7.11 20.31 7.1 20.31 7.09 20.3 7.08 20.3 7.07 20.3 7.07 20.29 7.06 20.29 7.05 20.29 7.04 20.28 7.04 20.28 7.03 20.28 7.02 20.27 7.01 20.27 7 20.26 7 20.26 6.99 20.26 6.98 20.25 6.97 20.25 6.97 20.25 6.95 20.24 6.95 20.24 6.94 20.24 6.93 20.23 6.92 20.23 6.92 20.23 6.91 20.23 6.9 20.22 6.89 20.22 6.88 20.21 6.87 20.21 6.87 20.21 6.86 20.2 6.85 20.2 6.84 20.2 6.84 20.19 6.83 20.19 6.82 20.19 6.81 20.18 6.8 20.18 6.8 20.18 6.79 20.17 6.78 20.17 6.77 20.17 6.76 20.16 6.75 20.16 6.75 20.16 6.74 20.15 6.73 20.15 6.72 20.15 6.72 20.14 6.71 20.14 6.7 20.14 6.69 20.13 6.68 20.13 6.67 20.13 6.67 20.12 6.66 20.12 6.65 20.12 6.64 20.11 6.64 20.11 6.63 20.11 6.62 20.1 6.61 20.1 6.61 20.1 6.59 20.09 6.59 20.09 6.58 20.09 6.57 20.08 6.56 20.08 6.55 20.08 6.55 20.07 6.54 20.07 6.53 20.07 6.53 20.06 6.52 20.06 6.51 20.06 6.5 20.05 6.49 20.05 6.48 20.05 6.47 20.04 6.47 20.04 6.46 20.04 6.45 20.03 6.44 20.03 6.44 20.02 6.42 20.02 6.42 20.02 6.41 20.02 6.41 20.01 6.39 20.01 6.39 20 6.38 20 6.37 20 6.36 19.99 6.36 19.99 6.35 19.99 6.34 19.98 6.33 19.98 6.32 19.98 6.31 19.97 6.31 19.97 6.3 19.97 6.29 19.96 6.28 19.96 6.28 19.96 6.27 19.95 6.26 19.95 6.25 19.95 6.24 19.94 6.24 19.94 6.22 19.94 6.22 19.93 6.21 19.93 6.21 19.93 6.19 19.92 6.19 19.92 6.18 19.92 6.17 19.91 6.16 19.91 6.16 19.91 6.15 19.9 6.14 19.9 6.13 19.9 6.13 19.89 6.11 19.89 6.11 19.89 6.1 19.88 6.09 19.88 6.08 19.88 6.08 19.87 6.07 19.87 6.06 19.87 6.05 19.86 6.04 19.86 6.04 19.86 6.03 19.85 6.02 19.85 6.01 19.85 6 19.84 6 19.84 5.99 19.84 5.98 19.83 5.97 19.83 5.96 19.82 5.96 19.82 5.95 19.82 5.94 19.82 5.93 19.81 5.93 19.81 5.91 19.81 5.91 19.8 5.9 19.8 5.89 19.8 5.88 19.79 5.88 19.79 5.87 19.79 5.86 19.78 5.85 19.78 5.84 19.77 5.83 19.77 5.83 19.77 5.82 19.76 5.81 19.76 5.8 19.76 5.79 19.75 5.79 19.75 5.78 19.75 5.77 19.74 5.76 19.74 5.76 19.74 5.75 19.73 5.74 19.73 5.73 19.73 5.72 19.72 5.71 19.72 5.71 19.72 5.7 19.71 5.69 19.71 5.68 19.71 5.68 19.7 5.67 19.7 5.66 19.7 5.65 19.69 5.64 19.69 5.63 19.69 5.63 19.68 5.62 19.68 5.61 19.68 5.6 19.67 5.6 19.67 5.59 19.67 5.58 19.66 5.57 19.66 5.56 19.66 5.56 19.65 5.55 19.65 5.54 19.65 5.53 19.64 5.52 19.64 5.52 19.64 5.51 19.63 5.5 19.63 5.49 19.63 5.48 19.62 5.48 19.62 5.47 19.62 5.46 19.61 5.45 19.61 5.45 19.61 5.43 19.62 5.44 19.66 5.44 19.69 5.45 19.72 5.45 19.76 5.45 19.78 5.45 19.81 5.46 19.83 5.46 19.86 5.46 19.88 5.46 19.9 5.46 19.93 5.46 19.95 5.46 19.96 5.46 19.99 5.46 20 5.46 20.02 5.46 20.04 5.46 20.05 5.46 20.07 5.45 20.09 5.45 20.1 5.45 20.12 5.45 20.13 5.45 20.15 5.45 20.16 5.45 20.18 5.44 20.19 5.44 20.2 5.44 20.22 5.44 20.23 5.44 20.24 5.43 20.25 5.43 20.27 5.43 20.28 5.43 20.29 5.42 20.3 5.42 20.31 5.42 20.32 5.42 20.34 5.41 20.35 5.41 20.36 5.41 20.37 5.41 20.38 5.4 20.39 5.4 20.4 5.4 20.41 5.39 20.42 5.39 20.43 5.39 20.44 5.39 20.45 5.38 20.45 5.38 20.47 5.38 20.48 5.38 20.48 5.37 20.49 5.37 20.5 5.37 20.51 5.36 20.52 5.36 20.53 5.36 20.54 5.35 20.55 5.35 20.55 5.34 20.56 5.34 20.57 5.34 20.58 5.33 20.58 5.33 20.59 5.33 20.6 5.33 20.61 5.32 20.61 5.32 20.62 5.31 20.63 5.31 20.64 5.31 20.65 5.3 20.65 5.3 20.66 5.3 20.67 5.29 20.67 5.29 20.68 5.29 20.69 5.28 20.69 5.28 20.7 5.28 20.7 5.27 20.71 5.27 20.72 5.26 20.72 5.26 20.73 5.26 20.74 5.25 20.74 5.25 20.75 5.24 20.76 5.24 20.77 5.23 20.77 5.23 20.78 5.22 20.79 5.22 20.79 5.21 20.8 5.21 20.81 5.2 20.81 5.2 20.82 5.19 20.83 5.19 20.83 5.18 20.84 5.17 20.85 5.17 20.86 5.17 20.86 5.16 20.87 5.15 20.88 5.14 20.88 5.14 20.89 5.13 20.9 5.12 20.91 5.12 20.91 5.11 20.92 5.1 20.93 5.1 20.94 5.09 20.94 5.08 20.95 5.07 20.96 5.06 20.97 5.05 20.98 5.04 20.98 5.04 20.99 5.02 21 5.01 21.01 5 21.02 4.99 21.02 4.98 21.04 4.97 21.04 4.95 21.05 4.94 21.06 4.92 21.07 4.91 21.08 4.89 21.09 4.87 21.11 4.85 21.12 4.82 21.13 4.79 21.14 4.77 21.31 4.82 21.6 4.89 21.62 4.89 21.63 4.88 21.64 4.88 21.65 4.87 21.65 4.87 21.66 4.86 21.67 4.85 21.68 4.85 21.68 4.84 21.69 4.83 21.7 4.82 21.7 4.82 21.71 4.81 21.72 4.81 21.73 4.8 21.73 4.79 21.74 4.79 21.75 4.78 21.76 4.77 21.76 4.76 21.77 4.76 21.78 4.75 21.78 4.75 21.79 4.74 21.8 4.74 21.81 4.73 21.81 4.72 21.82 4.71 21.83 4.7 21.84 4.7 21.84 4.69 21.85 4.69 21.86 4.68 21.86 4.67 21.87 4.67 21.88 4.66 21.89 4.65 21.89 4.64 21.9 4.64 21.91 4.63 21.92 4.63 21.92 4.62 21.93 4.62 21.94 4.61 21.94 4.6 21.95 4.59 21.96 4.58 21.97 4.58 21.98 4.57 21.98 4.57 21.74 4.5 21.32 4.4 21.25 4.38 21.26 4.37 21.26 4.33 21.26 4.3 21.26 4.28 21.26 4.26 21.26 4.25 21.26 4.24 21.26 4.22 21.25 4.21 21.25 4.2 21.25 4.18 21.25 4.17 21.25 4.16 21.24 4.15 21.24 4.14 21.24 4.13 21.23 4.12 21.23 4.11 21.23 4.1 21.23 4.09 21.22 4.08 21.22 4.07 21.22 4.07 21.21 4.05 21.21 4.05 21.21 4.04 21.2 4.03 21.2 4.02 21.2 4.01 21.19 4 21.19 4 21.19 3.99 21.18 3.98 21.18 3.97 21.18 3.97 21.17 3.96 21.17 3.95 21.16 3.95 21.16 3.94 21.16 3.93 21.15 3.92 21.15 3.92 21.84 4.09 21.85 4.08 21.85 4.08 21.86 4.07 21.87 4.06 21.88 4.06 21.88 4.05 21.89 4.05 21.9 4.04 21.91 4.03 21.91 4.03 21.92 4.02 21.93 4.01 21.93 4 21.94 4 21.95 3.99 21.96 3.98 21.96 3.98 21.97 3.97 21.98 3.97 21.98 3.96 21.99 3.95 22 3.94 22.01 3.93 22.01 3.93 22.02 3.92 22.03 3.92 22.04 3.91 22.04 3.91 22.05 3.9 22.06 3.89 22.07 3.88 22.07 3.88 22.08 3.87 22.09 3.86 22.09 3.86 22.1 3.85 22.11 3.84 22.12 3.84 22.12 3.83 22.13 3.82 22.14 3.82 22.14 3.81 22.15 3.8 22.16 3.79 22.17 3.79 22.18 3.78 22.18 3.78 22.19 3.77 22.19 3.76 19.85 3.14 19.66 3.09"/><path class="cls-6" d="M17.33,27.51A9.51,9.51,0,1,0,7.82,18,9.53,9.53,0,0,0,17.33,27.51Z"/><path class="cls-2" d="M17.32,10.66A1.62,1.62,0,0,1,19,12.29a1.53,1.53,0,0,1-.48,1.14,1.62,1.62,0,0,1-2.3-2.29,1.56,1.56,0,0,1,1.15-.48Zm1.47,4.76v7.8A2.32,2.32,0,0,0,19,24.55a1.3,1.3,0,0,0,.95.34v.38H14.67v-.38a1.35,1.35,0,0,0,1-.38,2.36,2.36,0,0,0,.21-1.29V17.48a2.4,2.4,0,0,0-.24-1.34,1.35,1.35,0,0,0-.94-.33v-.39Z"/><path class="cls-2" d="M5,12.91l-.89.52-.78.45-.55.32a.25.25,0,0,0-.1.35L4,16.77a.26.26,0,0,0,.35.1l.11-.45,1.78.48a.26.26,0,0,0,.32-.18l.23-.85-1.14-.31a.25.25,0,0,1-.18-.31L5.51,15a.26.26,0,0,1,.32-.18l1.13.3.23-.85A.26.26,0,0,0,7,13.92l-1.78-.47L5.35,13A.25.25,0,0,0,5,12.91Z"/><path class="cls-7" d="M40,27.19h3.31v.53H40.64V29.4h2.65v.52H40.64v2.63H40V27.19Zm8.43,0h.66v5.36h-.66V27.19Zm6.25,5.36V27.19h.14l4.39,4.1v-4.1h.65v5.36h-.15l-4.35-4v4Zm13.55-5.36,3.08,5.36h-.7l-1-1.76H66.7l-1,1.76h-.74l3.12-5.36Zm-.08,1.14L67,30.27h2.26l-1.13-1.94Zm8.26,4.22V27.19h.14l4.39,4.1v-4.1h.65v5.36h-.15l-4.35-4v4Zm17-4.36-.52.32a2.87,2.87,0,0,0-1-.69,3.52,3.52,0,0,0-1.32-.23,3.58,3.58,0,0,0-1.47.3,2.56,2.56,0,0,0-1,.83,2,2,0,0,0-.37,1.17,2,2,0,0,0,.83,1.63,3.25,3.25,0,0,0,2.09.66,3.3,3.3,0,0,0,2.32-.88l.52.32a3.39,3.39,0,0,1-1.23.79,4.8,4.8,0,0,1-1.65.27,3.87,3.87,0,0,1-2.74-.93,2.53,2.53,0,0,1-.84-1.91,2.43,2.43,0,0,1,1-2,4,4,0,0,1,2.55-.8,4.68,4.68,0,0,1,1.67.29,3.25,3.25,0,0,1,1.22.84Zm5.3-1h.66v5.36H98.7V27.19Zm8.93,0,3.08,5.36H110l-1-1.76h-2.84l-1,1.76h-.74l3.12-5.36Zm-.08,1.14-1.13,1.94h2.25l-1.12-1.94Zm8.25-1.14h.66V32H119v.52h-3.2Z"/><path class="cls-2" d="M39.8,24.51h3V8.72h-3V24.51ZM49.08,8.72a4.66,4.66,0,0,0-2.35.63A4.74,4.74,0,0,0,45,11a4.65,4.65,0,0,0,1.69,6.4,4.49,4.49,0,0,0,2.35.65h6.43a1.73,1.73,0,0,1,.88.24,1.67,1.67,0,0,1,.61.63,1.58,1.58,0,0,1,.24.85,1.64,1.64,0,0,1-.24.88,1.56,1.56,0,0,1-.61.61,1.73,1.73,0,0,1-.88.24H44.4v3H55.51a4.74,4.74,0,0,0,2.36-.65,4.7,4.7,0,0,0,1.68-6.42,4.74,4.74,0,0,0-1.68-1.68,4.64,4.64,0,0,0-2.36-.64H49.08a1.73,1.73,0,0,1-.88-.24,1.7,1.7,0,0,1-.61-.61,1.72,1.72,0,0,1,0-1.75,1.73,1.73,0,0,1,1.49-.85H60.19V8.72ZM69.31,24.51a7.83,7.83,0,0,0,5.38-2.11,7.76,7.76,0,0,0,1.71-2.3H72.84a5.13,5.13,0,0,1-1.6,1.06,4.9,4.9,0,0,1-1.93.4,5,5,0,0,1-2.08-.46,4.76,4.76,0,0,1-1.63-1.21,4.82,4.82,0,0,1-1-1.78H77.05c0-.23.08-.47.11-.72a6.57,6.57,0,0,0,0-.78,7.68,7.68,0,0,0-.62-3.06A8.07,8.07,0,0,0,74.9,11a7.88,7.88,0,0,0-8.67-1.69A7.67,7.67,0,0,0,63.73,11,7.93,7.93,0,0,0,62,13.55a7.91,7.91,0,0,0,0,6.14,7.86,7.86,0,0,0,7.27,4.82Zm0-12.8a4.73,4.73,0,0,1,2,.45A5,5,0,0,1,73,13.38a4.81,4.81,0,0,1,1,1.78H64.6a4.74,4.74,0,0,1,1-1.78,4.92,4.92,0,0,1,1.63-1.22,4.83,4.83,0,0,1,2.08-.45Zm9.5,4.9h0v7.9h3v-7.9h0a5.14,5.14,0,0,1,.39-1.92,4.88,4.88,0,0,1,2.6-2.63,4.91,4.91,0,0,1,1.92-.39V8.72a7.82,7.82,0,0,0-3.06.62A8,8,0,0,0,81.14,11a8.06,8.06,0,0,0-1.7,2.52,7.87,7.87,0,0,0-.63,3.07Zm17,3.91L91.11,8.72H87.93l6.33,15.79h3.18l6.28-15.79h-3.18l-4.71,11.8Zm15,4a7.89,7.89,0,0,1-7.27-4.82,7.91,7.91,0,0,1,0-6.14A7.93,7.93,0,0,1,105.27,11a7.67,7.67,0,0,1,2.5-1.69A7.91,7.91,0,0,1,116.44,11a8.07,8.07,0,0,1,1.68,2.51,7.68,7.68,0,0,1,.62,3.06,6.57,6.57,0,0,1,0,.78c0,.25-.07.49-.11.72H106.14a4.82,4.82,0,0,0,1,1.78,4.76,4.76,0,0,0,1.63,1.21,4.92,4.92,0,0,0,4,.06,5.21,5.21,0,0,0,1.59-1.06h3.56a7.76,7.76,0,0,1-1.71,2.3,7.83,7.83,0,0,1-5.38,2.11Zm0-12.8a4.83,4.83,0,0,0-2.08.45,4.92,4.92,0,0,0-1.63,1.22,4.74,4.74,0,0,0-1,1.78h9.42a4.93,4.93,0,0,0-1-1.78,5.06,5.06,0,0,0-1.64-1.22A4.73,4.73,0,0,0,110.85,11.71Z"/><polygon class="cls-7" points="41.31 1.88 42.34 2.47 43.36 3.06 43.36 4.24 43.36 5.42 42.34 6.01 41.31 6.6 40.29 6.01 39.27 5.42 39.27 4.24 39.27 3.06 40.29 2.47 41.31 1.88"/><path class="cls-5" d="M6.92,25.28a1.35,1.35,0,0,1-2-.49,1.31,1.31,0,0,1,.65-1.85,1.38,1.38,0,0,1,2,.48A1.32,1.32,0,0,1,6.92,25.28ZM5.86,23.42c-.51.28-.78.76-.54,1.2s.79.47,1.32.18.79-.73.54-1.19S6.38,23.14,5.86,23.42Z"/><path class="cls-5" d="M7.25,25.69c.18-.16.33-.29.45-.42l.3.35-.21.22h0a.74.74,0,0,1,.7.26c.24.27.3.71-.19,1.14l-.93.81L7,27.66l.88-.77c.23-.19.32-.42.14-.64a.44.44,0,0,0-.5-.1.31.31,0,0,0-.14.09L6.5,27l-.35-.4Z"/><path class="cls-5" d="M10,26.31l.4.35-2,2.28L8,28.6Z"/><path class="cls-5" d="M9,29.39l1.21-1.68.42.31L9.39,29.7Zm2-1.82a.28.28,0,0,1-.41.05.27.27,0,0,1-.07-.39.26.26,0,0,1,.4-.06A.27.27,0,0,1,11,27.57Z"/><path class="cls-5" d="M10.74,28.88c.11-.21.2-.39.27-.55l.41.21-.12.29h0a.75.75,0,0,1,.75,0c.32.17.54.55.24,1.13L11.73,31l-.47-.24.55-1c.13-.26.14-.51-.11-.64a.43.43,0,0,0-.51.08.48.48,0,0,0-.09.14l-.57,1.08-.46-.25Z"/><path class="cls-5" d="M13.18,30.62a.56.56,0,0,0,.46.7,1.61,1.61,0,0,0,.58.08l0,.37a2,2,0,0,1-.72-.09,1,1,0,0,1-.73-1.31A1,1,0,0,1,14,29.59a.91.91,0,0,1,.57,1.23,1.62,1.62,0,0,1-.08.2Zm1-.08a.44.44,0,0,0-.27-.61.5.5,0,0,0-.6.34Z"/><path class="cls-5" d="M17.87,32.22,17.65,32a1.19,1.19,0,0,1-.82.26.84.84,0,0,1-.93-.83.91.91,0,0,1,.58-.81v0a.89.89,0,0,1-.22-.58.74.74,0,0,1,.82-.71.65.65,0,0,1,.7.66c0,.3-.19.53-.61.73v0l.56.67a2.12,2.12,0,0,0,.28-.76h.47A2.24,2.24,0,0,1,18,31.69c.15.18.3.36.48.55Zm-.47-.54-.69-.81a.59.59,0,0,0-.31.47.51.51,0,0,0,.52.52A.67.67,0,0,0,17.4,31.68ZM16.73,30a.73.73,0,0,0,.2.47c.25-.15.39-.28.4-.48a.3.3,0,0,0-.28-.33A.33.33,0,0,0,16.73,30Z"/><path class="cls-5" d="M22.25,29.89a1.34,1.34,0,0,1-.9,1.82,1.31,1.31,0,0,1-1.67-1,1.38,1.38,0,0,1,.89-1.82A1.32,1.32,0,0,1,22.25,29.89Zm-2,.63c.16.56.57.92,1.05.78s.63-.67.47-1.24-.55-.94-1.05-.79S20.05,30,20.21,30.52Z"/><path class="cls-5" d="M23.21,28.13a.63.63,0,0,0-.22.07.3.3,0,0,0-.14.2.51.51,0,0,0,.1.38l0,.07.65-.41-.05-.07a.88.88,0,0,1-.1-.74,1.12,1.12,0,0,1,.51-.58,1.55,1.55,0,0,1,.69-.24l1.53,2.47-.45.28-1.38-2.23a.51.51,0,0,0-.25.1.44.44,0,0,0-.11.66l0,.08.36-.22.21.33-.36.22.88,1.43-.44.27-.89-1.42-.64.4.88,1.42-.45.28-.88-1.43-.24.15-.2-.33.23-.15,0,0a.83.83,0,0,1,.27-1.23,1,1,0,0,1,.32-.11Z"/><path class="cls-5" d="M25.49,26.31a.29.29,0,0,1,0,.41.27.27,0,0,1-.4,0,.27.27,0,0,1,0-.4A.28.28,0,0,1,25.49,26.31Zm1.38,2.32-1.4-1.52.39-.36,1.4,1.52Z"/><path class="cls-5" d="M26.73,26.79c-.19-.15-.34-.27-.49-.37l.29-.36.26.18h0a.8.8,0,0,1,.14-.74.76.76,0,0,1,1.16,0l.95.78-.33.41-.91-.74c-.23-.19-.47-.25-.65,0a.44.44,0,0,0,0,.51.47.47,0,0,0,.12.13l.94.77-.34.4Z"/><path class="cls-5" d="M28.92,24.76a.56.56,0,0,0,.78-.3,1.57,1.57,0,0,0,.19-.55l.36.11a2.19,2.19,0,0,1-.24.69,1,1,0,0,1-1.43.44,1,1,0,0,1-.49-1.42,1.07,1.07,0,0,1,1.5-.18Zm.12-1a.45.45,0,0,0-.65.14.51.51,0,0,0,.21.66Z"/></svg>