<svg width="153" height="48" viewBox="0 0 153 48" fill="none" xmlns="http://www.w3.org/2000/svg">
<path d="M15.8577 0H31.7068V15.8491H15.8577V0Z" fill="#00A0AD"/>
<path d="M4.00543e-05 31.7527H15.8491V47.6018H4.00543e-05V31.7527Z" fill="#00A0AD"/>
<path d="M31.7068 31.7812H15.8577L0.0081234 15.9321H15.8577L31.7068 31.7812Z" fill="#00A0AD"/>
<path fill-rule="evenodd" clip-rule="evenodd" d="M47.06 31.9782H53.7723C55.8863 31.9782 56.0554 32.9506 56.0554 34.6414V41.4055C56.0554 42.0817 56.0765 44.4508 56.0133 45.1255C55.9495 45.8042 55.6749 46.0557 55.2095 46.0557H54.4068C54.1533 46.0557 53.9836 46.14 53.9836 46.3936V47.2816C53.9836 47.5351 54.1528 47.6195 54.322 47.6195C54.7447 47.6195 56.2668 47.493 58.5494 47.493C61.0013 47.493 62.5234 47.6195 62.8613 47.6195C63.1996 47.6195 63.284 47.5351 63.284 47.1968V46.4362C63.284 46.14 63.1996 46.0557 62.8613 46.0557H61.3397C60.7478 46.0557 60.4943 45.722 60.4943 44.9563V36.7554C60.4943 33.2884 60.4943 30.5831 60.6629 29.9068C60.7478 29.5685 60.5786 29.3571 60.3251 29.3571C59.9867 29.3571 59.3892 29.4425 58.6343 29.5685C57.3585 29.7809 56.0133 29.8647 54.5755 29.8647H47.06V28.9766C47.06 25.2988 46.5962 22.0571 48.217 20.1247C48.7945 19.4361 50.4133 18.3521 52.6368 18.9018C53.4575 19.1049 54.1086 19.468 54.666 20.2548C55.5469 21.4987 56.2724 22.1996 57.6254 22.1996C58.8935 22.1996 60.0772 21.185 60.0772 19.8321C60.0772 18.1413 58.1324 16.7883 55.2579 16.7883C51.4875 16.7883 48.2016 17.5761 46.0208 19.6238C44.059 21.4658 42.6212 24.4534 42.6212 29.1036V29.8647H40.3807C40.0423 29.8647 39.8731 29.949 39.831 30.1604L39.6196 31.6398C39.6196 31.8938 39.7045 31.9782 39.8731 31.9782H42.6212L42.6633 44.6179C42.6633 45.5482 42.4098 46.0557 41.7336 46.0557H39.8731C39.5353 46.0557 39.4504 46.14 39.4504 46.3092V47.2816C39.4504 47.5351 39.5353 47.6195 39.7888 47.6195C40.1272 47.6195 42.0715 47.493 44.7773 47.493C47.6519 47.493 49.0048 47.6195 49.2583 47.6195C49.5119 47.6195 49.5967 47.4503 49.5967 47.1968V46.4362C49.5967 46.14 49.5119 46.0557 49.0892 46.0557H48.0746C47.4827 46.0557 47.1443 45.6325 47.1022 44.872C47.0178 43.6882 47.06 40.5596 47.06 35.6559V31.9782ZM64.497 31.8938C64.2435 31.9782 64.0743 32.1473 64.0743 32.3165V32.6544C64.0743 32.8236 64.1592 32.9927 64.4127 33.0771L64.7511 33.2462C65.7656 33.7538 66.5262 34.43 66.5262 35.6981V45.2098C66.5262 45.8865 65.9343 46.0557 65.4273 46.0557H64.5819C64.2435 46.0557 64.1592 46.14 64.1592 46.3936V47.1968C64.1592 47.4503 64.2435 47.6195 64.4127 47.6195C64.6662 47.6195 66.0191 47.493 68.6402 47.493C71.1764 47.493 72.3601 47.6195 72.6136 47.6195C72.8677 47.6195 72.952 47.4503 72.952 47.1968V46.4362C72.952 46.14 72.8677 46.0557 72.5293 46.0557H71.7682C71.1764 46.0557 70.965 45.5482 70.965 44.6179V35.9094C70.965 34.7684 71.1764 33.5846 71.8531 32.9084C72.8677 31.9782 73.8822 31.809 74.5584 31.809C75.4887 31.809 76.2492 31.809 77.0951 32.57C78.1092 33.4154 78.1941 34.5149 78.1941 36.2056V41.0672C78.1941 42.758 78.1519 43.9417 78.0249 45.0411C77.9405 45.8017 77.6022 46.0557 77.2638 46.0557H76.4184C75.9957 46.0557 75.9114 46.14 75.9114 46.3936V47.1124C75.9114 47.4503 75.9957 47.6195 76.2492 47.6195C76.5033 47.6195 77.8557 47.493 80.3924 47.493C83.3513 47.493 84.6199 47.6195 84.9577 47.6195C85.2117 47.6195 85.2961 47.5351 85.2961 47.3238V46.3514C85.2961 46.14 85.1691 46.0557 84.7891 46.0557H83.6053C83.0977 46.0557 82.5907 45.8017 82.5907 44.872C82.5907 44.0266 82.6329 42.1661 82.6329 40.8137V34.7262C82.6329 32.9927 82.168 31.7246 80.3075 30.3717C79.3778 29.6106 78.0249 29.3571 76.5876 29.3571C75.3195 29.3571 74.2201 29.7798 73.2055 30.3717C72.3601 30.7944 71.5991 31.4706 71.092 32.0625H70.8385L70.5001 29.8647C70.4158 29.5263 70.2466 29.3571 69.9926 29.3571C69.7391 29.3571 69.4856 29.5263 69.1472 29.6955L64.497 31.8938ZM93.0661 24.3532C93.4878 25.2289 93.2965 26.6821 91.7728 27.4159C90.2497 28.1497 88.726 27.617 88.1938 26.5124C87.57 25.2171 88.309 23.8292 89.4896 23.2604C91.2036 22.4346 92.5339 23.2486 93.0661 24.3532ZM89.0757 41.4055C89.0757 42.5888 89.0335 43.9417 88.9913 45.2098C88.9487 45.8865 88.7373 46.0557 88.3146 46.0557H86.4546C86.2011 46.0557 86.0319 46.14 86.0319 46.3936V47.1968C86.0319 47.5351 86.159 47.6195 86.3703 47.6195C86.8773 47.6195 88.4838 47.493 90.9356 47.493C93.768 47.493 95.7128 47.6195 96.0507 47.6195C96.3047 47.6195 96.389 47.4503 96.389 47.1968V46.3514C96.389 46.14 96.3047 46.0557 95.9664 46.0557H94.2756C93.8529 46.0557 93.6837 45.7173 93.5988 44.9563C93.5145 44.4493 93.5145 42.9271 93.5145 41.3207V36.7554C93.5145 33.2462 93.5145 30.5409 93.5988 29.8647C93.6415 29.5263 93.5145 29.3571 93.261 29.3571C93.007 29.3571 92.6691 29.4415 92.2464 29.6106C91.5275 29.9068 87.3422 31.3863 86.7503 31.6398C86.539 31.7246 86.4546 31.809 86.4546 31.9782V32.443C86.4546 32.6122 86.4968 32.7392 86.8773 32.8236C88.8222 33.3311 89.0757 34.1765 89.0757 35.4446V41.4055ZM102.769 47.493H97.3584C96.9357 47.493 96.7665 47.239 97.1892 46.5627L107.42 31.2171L104.314 31.1636C101.863 31.1209 101.098 31.4989 97.7194 35.8138C97.5887 35.9799 97.4288 36.0159 97.2967 35.9403L96.7048 35.6024C96.5212 35.4975 96.5161 35.3834 96.6199 35.1371L99.1566 29.1345C99.9177 29.3036 100.679 29.4723 101.439 29.5572C102.961 29.7258 103.107 29.8647 106.574 29.8647H112.746C113.169 29.8647 113.422 30.2025 113.169 30.5409L102.6 46.0557L106.804 45.9729C107.878 45.9518 109.842 45.2453 112.771 41.6992C112.464 40.6954 112.367 39.6422 112.367 38.404C112.367 36.3748 113.381 33.4154 115.917 31.3863C117.989 29.6955 120.187 29.3571 121.921 29.3571C124.753 29.3571 126.866 30.456 128.304 31.8511C130.291 33.8381 131.221 36.0365 131.221 38.5305C131.221 40.898 130.206 43.1807 128.6 44.9563C126.866 46.9011 124.33 48 121.498 48C118.834 48 116.551 47.239 114.649 44.9563C114.166 44.385 113.78 43.8419 113.472 43.3061L111.031 47.9177C110.27 47.6637 108.579 47.5794 106.635 47.4945C104.69 47.4102 103.361 47.493 102.769 47.493ZM121.836 46.2244C120.145 46.2244 119.215 45.5482 118.496 44.4066C117.355 42.5888 117.186 40.9823 117.186 38.5305C117.186 35.4446 117.693 33.6689 119.003 32.1895C119.722 31.3863 120.568 31.0479 121.667 31.0479C123.611 31.0479 126.063 33.7538 126.063 38.404C126.063 42.7158 124.626 46.2244 121.836 46.2244ZM131.641 31.8938C131.387 31.9782 131.218 32.1473 131.218 32.3165V32.6544C131.218 32.8236 131.302 32.9927 131.556 33.0771L131.894 33.2462C132.909 33.7538 133.67 34.43 133.67 35.6981V45.2098C133.67 45.8865 133.078 46.0557 132.57 46.0557H131.725C131.387 46.0557 131.302 46.14 131.302 46.3936V47.1968C131.302 47.4503 131.387 47.6195 131.556 47.6195C131.81 47.6195 133.162 47.493 135.783 47.493C138.32 47.493 139.504 47.6195 139.757 47.6195C140.011 47.6195 140.095 47.4503 140.095 47.1968V46.4362C140.095 46.14 140.011 46.0557 139.672 46.0557H138.912C138.32 46.0557 138.109 45.5482 138.109 44.6179V35.9094C138.109 34.7684 138.32 33.5846 138.996 32.9084C140.011 31.9782 141.025 31.809 141.702 31.809C142.632 31.809 143.393 31.809 144.238 32.57C145.253 33.4154 145.338 34.5149 145.338 36.2056V41.0672C145.338 42.758 145.295 43.9417 145.168 45.0411C145.084 45.8017 144.746 46.0557 144.407 46.0557H143.562C143.139 46.0557 143.054 46.14 143.054 46.3936V47.1124C143.054 47.4503 143.139 47.6195 143.393 47.6195C143.646 47.6195 144.999 47.493 147.535 47.493C150.495 47.493 151.763 47.6195 152.101 47.6195C152.355 47.6195 152.44 47.5351 152.44 47.3238V46.3514C152.44 46.14 152.313 46.0557 151.932 46.0557H150.748C150.241 46.0557 149.734 45.8017 149.734 44.872C149.734 44.0266 149.776 42.1661 149.776 40.8137V34.7262C149.776 32.9927 149.311 31.7246 147.451 30.3717C146.521 29.6106 145.168 29.3571 143.731 29.3571C142.462 29.3571 141.364 29.7798 140.349 30.3717C139.504 30.7944 138.743 31.4706 138.235 32.0625H137.981L137.643 29.8647C137.559 29.5263 137.39 29.3571 137.136 29.3571C136.883 29.3571 136.629 29.5263 136.291 29.6955L131.641 31.8938Z" fill="#333333"/>
</svg>
