<?xml version="1.0" encoding="utf-8"?>
<!-- Generator: Adobe Illustrator 22.1.0, SVG Export Plug-In . SVG Version: 6.00 Build 0)  -->
<svg version="1.1" id="Layer_1" xmlns="http://www.w3.org/2000/svg" xmlns:xlink="http://www.w3.org/1999/xlink" x="0px" y="0px"
	 viewBox="0 0 141 50" style="enable-background:new 0 0 141 50;" xml:space="preserve">
<style type="text/css">
	.st0{fill:#FDD904;}
	.st1{fill:#020203;}
</style>
<g>
	<path class="st0" d="M15.9,8.9c1.9,0,3.8,0.4,5.5,1.1c1.7,0.7,3.2,1.7,4.5,3c1.3,1.3,2.3,2.7,3,4.4c0.7,1.7,1.1,3.5,1.1,5.4
		c0,2-0.3,3.8-1,5.5c-0.7,1.7-1.7,3.2-3,4.5c-1.3,1.3-2.7,2.3-4.4,3c-1.7,0.7-3.5,1.1-5.4,1.1c-2,0-3.8-0.4-5.5-1.1
		c-1.7-0.7-3.2-1.7-4.5-3c-1.3-1.3-2.3-2.7-3-4.4C2.4,26.8,2,25,2,23c0-1.9,0.4-3.8,1.1-5.5c0.7-1.7,1.7-3.2,3-4.5
		c1.3-1.3,2.7-2.3,4.4-3C12.2,9.3,14,8.9,15.9,8.9z M16,29.6c0.9,0,1.8-0.2,2.6-0.5c0.8-0.4,1.5-0.8,2.1-1.4
		c0.6-0.6,1.1-1.3,1.4-2.1c0.4-0.8,0.5-1.7,0.5-2.6c0-0.9-0.2-1.8-0.5-2.6c-0.4-0.8-0.8-1.5-1.5-2.1c-0.6-0.6-1.3-1.1-2.1-1.4
		c-0.8-0.3-1.7-0.5-2.6-0.5c-0.9,0-1.8,0.2-2.6,0.5c-0.8,0.4-1.5,0.8-2.1,1.5c-0.6,0.6-1.1,1.3-1.4,2.1c-0.4,0.8-0.5,1.7-0.5,2.6
		c0,0.9,0.2,1.8,0.5,2.6c0.4,0.8,0.8,1.5,1.4,2.1c0.6,0.6,1.3,1.1,2.1,1.4C14.2,29.4,15.1,29.6,16,29.6z M13.5,22.9
		c0-0.7,0.2-1.3,0.7-1.7c0.5-0.5,1-0.7,1.7-0.7c0.7,0,1.3,0.2,1.8,0.7c0.5,0.5,0.7,1,0.7,1.7c0,0.7-0.2,1.3-0.7,1.7
		c-0.5,0.5-1.1,0.7-1.8,0.7c-0.7,0-1.2-0.2-1.7-0.7C13.8,24.2,13.5,23.6,13.5,22.9z"/>
	<path class="st1" d="M45.3,16.3c-0.9,0-1.8,0.2-2.6,0.5c-0.8,0.4-1.5,0.8-2.1,1.4c-0.6,0.6-1.1,1.3-1.4,2.1
		c-0.3,0.8-0.5,1.7-0.4,2.6v14h-7.5V23c0-1.9,0.4-3.8,1.1-5.5c0.7-1.7,1.7-3.2,3-4.5c1.3-1.3,2.8-2.3,4.5-3c1.7-0.7,3.5-1.1,5.5-1.1
		H47v7.4H45.3z"/>
	<path class="st1" d="M49.1,8.9c1.9,0,3.7,0.4,5.4,1.1c1.7,0.7,3.2,1.7,4.5,3c1.3,1.3,2.3,2.8,3,4.5C62.7,19.2,63,21,63,23v14h-7.4
		V23c0-0.9-0.2-1.8-0.5-2.6c-0.3-0.8-0.8-1.5-1.4-2.1c-0.6-0.6-1.3-1.1-2.1-1.4c-0.8-0.4-1.6-0.5-2.6-0.5V8.9z M63,13.3
		c-0.2-0.5-0.5-1.1-1-1.7c-0.5-0.6-1-1.2-1.7-1.8c-0.6-0.5-1.4-1-2.2-1.4c-0.8-0.4-1.6-0.7-2.5-0.8V1.5H63V13.3z"/>
	<path class="st1" d="M78.7,8.9c1.9,0,3.8,0.4,5.5,1.1c1.7,0.7,3.2,1.7,4.5,3c1.3,1.3,2.3,2.8,3,4.5c0.8,1.7,1.1,3.5,1.1,5.5v12.4
		c0,1.9-0.4,3.6-1.2,5.3c-0.7,1.7-1.7,3.1-3,4.3c-1.3,1.2-2.7,2.2-4.4,2.9c-1.7,0.7-3.5,1.1-5.4,1.1v-7.3c0.9,0,1.7-0.2,2.5-0.5
		c0.8-0.3,1.5-0.8,2.1-1.3c0.6-0.6,1.1-1.2,1.4-2c0.4-0.8,0.6-1.6,0.6-2.5c-1,0.5-2.1,0.9-3.2,1.2c-1.1,0.3-2.3,0.4-3.5,0.4
		c-1.9,0-3.8-0.4-5.5-1.1c-1.7-0.7-3.2-1.7-4.5-3c-1.3-1.3-2.3-2.8-3-4.5c-0.8-1.7-1.1-3.5-1.1-5.5c0-1.9,0.4-3.8,1.1-5.5
		c0.7-1.7,1.7-3.2,3-4.5c1.3-1.3,2.7-2.3,4.4-3C75,9.3,76.8,8.9,78.7,8.9z M78.8,29.6c0.9,0,1.8-0.2,2.6-0.5
		c0.8-0.4,1.5-0.8,2.1-1.5c0.6-0.6,1.1-1.3,1.4-2.1c0.4-0.8,0.5-1.7,0.5-2.6c0-0.9-0.2-1.8-0.5-2.6c-0.4-0.8-0.8-1.5-1.4-2.1
		c-0.6-0.6-1.3-1.1-2.1-1.4c-0.8-0.3-1.7-0.5-2.6-0.5c-0.9,0-1.8,0.2-2.6,0.5c-0.8,0.4-1.5,0.8-2.1,1.4c-0.6,0.6-1.1,1.3-1.4,2.1
		c-0.3,0.8-0.5,1.7-0.5,2.6c0,0.9,0.2,1.8,0.5,2.6c0.4,0.8,0.8,1.5,1.4,2.1c0.6,0.6,1.3,1.1,2.1,1.4C77,29.4,77.9,29.6,78.8,29.6z"
		/>
	<path class="st1" d="M93.3,8.9c1.9,0,3.7,0.4,5.4,1.1c1.7,0.7,3.2,1.7,4.5,3c1.3,1.3,2.3,2.8,3,4.5c0.7,1.7,1.1,3.5,1.1,5.5v14
		h-7.4V23c0-0.9-0.2-1.8-0.5-2.6c-0.3-0.8-0.8-1.5-1.4-2.1c-0.6-0.6-1.3-1.1-2.1-1.4c-0.8-0.4-1.6-0.5-2.6-0.5V8.9z M107.2,13.3
		c-0.2-0.5-0.5-1.1-1-1.7c-0.5-0.6-1-1.2-1.7-1.8c-0.7-0.5-1.4-1-2.2-1.4c-0.8-0.4-1.6-0.7-2.5-0.8V1.5h7.3V13.3z"/>
	<path class="st1" d="M131.1,23c0-1-0.2-1.8-0.5-2.6c-0.3-0.8-0.8-1.5-1.4-2.1c-0.6-0.6-1.3-1.1-2.1-1.4c-0.8-0.3-1.7-0.5-2.6-0.5
		c-0.9,0-1.8,0.2-2.6,0.5c-0.8,0.3-1.5,0.8-2.1,1.4c-0.6,0.6-1.1,1.3-1.4,2.1c-0.3,0.8-0.5,1.7-0.5,2.6v14h-7.4V23
		c0-1.9,0.4-3.8,1.1-5.5c0.7-1.7,1.7-3.2,3-4.5s2.7-2.3,4.4-3c1.7-0.7,3.5-1.1,5.4-1.1c1.9,0,3.8,0.4,5.5,1.1c1.7,0.7,3.2,1.7,4.5,3
		c1.3,1.3,2.3,2.8,3.1,4.5c0.8,1.7,1.1,3.6,1.1,5.5v14h-7.4V23z"/>
	<g>
		<path class="st1" d="M100.5,44.2c0,1.1-0.5,2-1.4,2.6c-0.4,0.2-0.8,0.4-1.3,0.4h-2.6c-0.2,0-0.3-0.1-0.3-0.2
			c0-0.2,0.1-0.2,0.3-0.2h0.4V41h-0.4c-0.2,0-0.3-0.1-0.3-0.2c0-0.2,0.1-0.2,0.3-0.2h2.6c0.8,0,1.4,0.3,1.9,0.8
			c0.6,0.7,0.8,1.4,0.8,2.2V44.2z M100,44.3v-0.9c0-0.3,0-0.6-0.1-0.8c-0.1-0.3-0.3-0.7-0.6-1C99,41.3,98.5,41,97.9,41h-1.7v5.7h1.7
			c0.4,0,0.8-0.1,1.1-0.4c0.3-0.2,0.6-0.6,0.8-0.9C100,45,100,44.7,100,44.3z"/>
		<path class="st1" d="M107.6,47.2h-5.3c-0.2,0-0.3-0.1-0.3-0.2c0-0.2,0.1-0.2,0.3-0.2h0.6V41h-0.6c-0.2,0-0.3-0.1-0.3-0.2
			c0-0.2,0.1-0.2,0.3-0.2h5v1.6c0,0.2-0.1,0.3-0.2,0.3c-0.2,0-0.2-0.1-0.2-0.3V41h-3.4v2.5h1.7V43c0-0.2,0.1-0.3,0.2-0.3
			c0.2,0,0.2,0.1,0.2,0.3v1.6c0,0.2-0.1,0.3-0.2,0.3c-0.2,0-0.2-0.1-0.2-0.3V44h-1.7v2.7h3.7v-1.4c0-0.2,0.1-0.3,0.2-0.3
			c0.2,0,0.2,0.1,0.2,0.3V47.2z"/>
		<path class="st1" d="M115,45.4c0,0.6-0.3,1.1-0.8,1.5c-0.5,0.3-1,0.5-1.7,0.5c-0.8,0-1.5-0.3-2-0.8v0.3c0,0.2-0.1,0.3-0.2,0.3
			s-0.2-0.1-0.2-0.3v-1.3c0-0.2,0.1-0.3,0.2-0.3c0.1,0,0.2,0.1,0.2,0.3c0,0.4,0.3,0.8,0.7,1.1c0.4,0.2,0.8,0.3,1.3,0.3
			c0.5,0,0.9-0.1,1.3-0.4c0.4-0.3,0.6-0.7,0.6-1.1c0-0.5-0.3-0.9-0.8-1.1c-0.2-0.1-0.6-0.2-1.1-0.3c-0.7-0.1-1.2-0.3-1.5-0.5
			c-0.5-0.3-0.7-0.7-0.7-1.3c0-0.6,0.2-1,0.7-1.4c0.4-0.3,0.9-0.5,1.5-0.5c0.7,0,1.2,0.2,1.7,0.6v-0.2c0-0.2,0.1-0.3,0.2-0.3
			c0.2,0,0.2,0.1,0.2,0.3v1.2c0,0.2-0.1,0.3-0.2,0.3c-0.1,0-0.2-0.1-0.2-0.3c0-0.4-0.2-0.7-0.6-0.9c-0.3-0.2-0.7-0.3-1.1-0.3
			c-0.4,0-0.8,0.1-1.2,0.3c-0.4,0.3-0.6,0.6-0.6,1c0,0.4,0.2,0.7,0.5,0.9c0.3,0.2,0.7,0.3,1.3,0.4c0.6,0.1,1.1,0.2,1.3,0.3
			C114.7,44.2,115,44.7,115,45.4z"/>
		<path class="st1" d="M122.3,47c0,0.2-0.1,0.2-0.3,0.2h-3.7c-0.2,0-0.3-0.1-0.3-0.2c0-0.2,0.1-0.2,0.3-0.2h1.6V41h-1.6
			c-0.2,0-0.3-0.1-0.3-0.2c0-0.2,0.1-0.2,0.3-0.2h3.7c0.2,0,0.3,0.1,0.3,0.2c0,0.2-0.1,0.2-0.3,0.2h-1.6v5.7h1.6
			C122.2,46.7,122.3,46.8,122.3,47z"/>
		<path class="st1" d="M130.7,44.5c0,0.1,0,0.2-0.1,0.2c0,0-0.2,0-0.3,0v2c-0.7,0.4-1.5,0.6-2.2,0.6c-1,0-1.8-0.3-2.3-0.9
			c-0.6-0.6-0.9-1.3-0.9-2.2v-0.9c0-0.5,0.1-1,0.4-1.5c0.3-0.5,0.6-0.9,1.1-1.1c0.4-0.3,0.9-0.4,1.5-0.4c0.8,0,1.4,0.2,1.9,0.6
			c0-0.2,0-0.4,0.1-0.4c0,0,0.1,0,0.1,0c0.2,0,0.2,0.1,0.2,0.3V42c0,0.2-0.1,0.3-0.2,0.3c-0.1,0-0.2-0.1-0.2-0.3
			c0-0.4-0.3-0.6-0.7-0.8c-0.4-0.2-0.8-0.2-1.2-0.2c-0.9,0-1.7,0.5-2.2,1.4c-0.2,0.4-0.3,0.8-0.3,1.2v0.9c0,0.8,0.3,1.5,0.8,1.9
			c0.5,0.4,1.1,0.7,2,0.7c0.5,0,1.1-0.1,1.7-0.4v-1.8h-1.6c-0.2,0-0.3-0.1-0.3-0.2c0-0.2,0.1-0.2,0.3-0.2l2.3,0
			C130.6,44.3,130.7,44.3,130.7,44.5z"/>
		<path class="st1" d="M138.2,40.8c0,0.2-0.1,0.2-0.3,0.2h-0.4v6.2h-0.6l-3.5-5.9v5.5h0.9c0.2,0,0.3,0.1,0.3,0.2
			c0,0.2-0.1,0.2-0.3,0.2h-1.8c-0.2,0-0.3-0.1-0.3-0.2c0-0.2,0.1-0.2,0.3-0.2h0.4V41h-0.6c-0.2,0-0.3-0.1-0.3-0.2
			c0-0.2,0.1-0.2,0.3-0.2h1.3l3.5,6V41h-0.9c-0.2,0-0.3-0.1-0.3-0.2c0-0.2,0.1-0.2,0.3-0.2h1.8C138.1,40.6,138.2,40.6,138.2,40.8z"
			/>
	</g>
</g>
</svg>
