<?xml version="1.0" encoding="utf-8"?>
<!-- Generator: Adobe Illustrator 22.1.0, SVG Export Plug-In . SVG Version: 6.00 Build 0)  -->
<svg version="1.1" id="Layer_1" xmlns="http://www.w3.org/2000/svg" xmlns:xlink="http://www.w3.org/1999/xlink" x="0px" y="0px"
	 viewBox="0 0 405 118" style="enable-background:new 0 0 405 118;" xml:space="preserve">
<style type="text/css">
	.st0{fill:#75D31C;}
	.st1{fill:#2E8EEF;}
	.st2{fill:#E9D93E;}
	.st3{fill:#CE563E;}
	.st4{fill:#08356B;}
	.st5{fill:#41C45A;}
	.st6{fill:#0ADDA6;}
	.st7{fill:#FFFFFF;}
	.st8{fill:#E9ED3E;}
	.st9{fill:#060707;}
</style>
<g>
	<rect x="207.5" y="57.3" class="st0" width="47.7" height="31.5"/>
	<rect x="255.2" y="57.3" class="st1" width="47.7" height="31.5"/>
	<rect x="302.9" y="57.3" class="st2" width="47.7" height="31.5"/>
	<rect x="350.6" y="57.3" class="st3" width="47.7" height="31.5"/>
</g>
<g>
	<path class="st4" d="M38.3,38.6L58,90.1h1.6l-4.2-11.5l14.9-40h29.7l-28.5,73.3H37.5L8.9,38.6H38.3z"/>
	<path class="st4" d="M100.5,112c0-24.4,0-49,0-73.4H128c0,24.4,0,49,0,73.4H100.5z"/>
	<path class="st4" d="M199.9,112h-68.7v-5.5l24.6-40.8h-24.2V38.6h68.7v3.6l-23.9,41.3H164l-0.5,1.4h36.4V112z"/>
</g>
<circle class="st5" cx="114.2" cy="18.5" r="13.7"/>
<circle class="st6" cx="114.2" cy="18.5" r="13.7"/>
<path class="st7" d="M235.4,72.8c1.3,0.3,2.2,0.7,2.8,1.3c0.9,0.8,1.3,1.8,1.3,3c0,0.9-0.3,1.8-0.9,2.6c-0.6,0.8-1.4,1.4-2.4,1.8
	s-2.5,0.6-4.6,0.6h-8.6v-0.5h0.7c0.8,0,1.3-0.2,1.6-0.7c0.2-0.3,0.3-1,0.3-2V67.1c0-1.1-0.1-1.8-0.4-2.1c-0.4-0.4-0.9-0.6-1.6-0.6
	h-0.7v-0.5h7.9c1.5,0,2.7,0.1,3.5,0.3c1.3,0.3,2.4,0.9,3.1,1.7c0.7,0.8,1.1,1.8,1.1,2.8c0,0.9-0.3,1.7-0.8,2.5
	C237.3,71.9,236.5,72.5,235.4,72.8z M228.3,72.1c0.3,0.1,0.7,0.1,1.1,0.1c0.4,0,0.9,0,1.4,0c1.3,0,2.3-0.1,3-0.4s1.2-0.7,1.5-1.3
	s0.5-1.2,0.5-1.9c0-1.1-0.4-2-1.3-2.7c-0.9-0.8-2.1-1.1-3.8-1.1c-0.9,0-1.7,0.1-2.4,0.3V72.1z M228.3,80.8c1,0.2,2.1,0.4,3.1,0.4
	c1.6,0,2.9-0.4,3.7-1.1c0.9-0.7,1.3-1.6,1.3-2.7c0-0.7-0.2-1.4-0.6-2c-0.4-0.7-1-1.2-1.9-1.6c-0.9-0.4-2-0.6-3.2-0.6
	c-0.6,0-1,0-1.4,0c-0.4,0-0.7,0-1,0.1V80.8z"/>
<path class="st7" d="M282.3,63.9h6.4v0.5h-0.4c-0.2,0-0.6,0.1-1,0.3c-0.4,0.2-0.9,0.5-1.2,0.9c-0.4,0.4-0.8,1-1.4,1.9l-4.4,6.9V79
	c0,1.1,0.1,1.8,0.4,2.1c0.3,0.4,0.9,0.6,1.6,0.6h0.6v0.5h-7.8v-0.5h0.6c0.8,0,1.3-0.2,1.6-0.7c0.2-0.3,0.3-0.9,0.3-2v-4.3l-5-7.7
	c-0.6-0.9-1-1.5-1.2-1.7c-0.2-0.2-0.6-0.5-1.3-0.8c-0.2-0.1-0.4-0.1-0.8-0.1v-0.5h7.8v0.5h-0.4c-0.4,0-0.8,0.1-1.2,0.3
	c-0.4,0.2-0.5,0.5-0.5,0.9c0,0.3,0.3,0.9,0.8,1.8l3.8,5.9l3.6-5.6c0.5-0.8,0.8-1.5,0.8-1.9c0-0.3-0.1-0.5-0.2-0.7
	c-0.1-0.2-0.3-0.4-0.6-0.5c-0.2-0.1-0.6-0.2-1.1-0.2V63.9z"/>
<path class="st7" d="M334.2,63.9l0.2,4.3h-0.5c-0.1-0.8-0.2-1.3-0.4-1.6c-0.3-0.5-0.6-0.9-1.1-1.2c-0.5-0.2-1.1-0.4-1.8-0.4H328v14
	c0,1.1,0.1,1.8,0.4,2.1c0.3,0.4,0.9,0.6,1.6,0.6h0.6v0.5h-7.8v-0.5h0.6c0.8,0,1.3-0.2,1.6-0.7c0.2-0.3,0.3-0.9,0.3-2V65h-2.2
	c-0.9,0-1.5,0.1-1.8,0.2c-0.5,0.2-0.9,0.5-1.2,1c-0.3,0.5-0.5,1.1-0.6,2h-0.5l0.2-4.3H334.2z"/>
<path class="st7" d="M371.8,64.9v7.2h4c1,0,1.7-0.2,2.1-0.5c0.5-0.4,0.7-1.1,0.8-2.2h0.5v6.4h-0.5c-0.1-0.9-0.3-1.5-0.4-1.7
	c-0.2-0.3-0.4-0.6-0.8-0.7c-0.4-0.2-0.9-0.3-1.7-0.3h-4v6c0,0.8,0,1.3,0.1,1.5c0.1,0.2,0.2,0.3,0.4,0.4c0.2,0.1,0.5,0.2,1,0.2h3.1
	c1,0,1.8-0.1,2.3-0.2c0.5-0.1,0.9-0.4,1.3-0.8c0.6-0.6,1.1-1.4,1.7-2.5h0.5l-1.6,4.6h-14.1v-0.5h0.6c0.4,0,0.8-0.1,1.2-0.3
	c0.3-0.1,0.5-0.4,0.6-0.6c0.1-0.3,0.2-0.9,0.2-1.8V67.1c0-1.2-0.1-1.9-0.4-2.1c-0.3-0.4-0.9-0.5-1.6-0.5h-0.6v-0.5h14.1l0.2,4h-0.5
	c-0.2-1-0.4-1.6-0.6-2c-0.2-0.4-0.6-0.6-1-0.8c-0.4-0.1-1-0.2-1.9-0.2H371.8z"/>
<g>
	<path class="st4" d="M218,99.3l0.1,2.9h-0.3c-0.1-0.5-0.2-0.9-0.3-1.1c-0.2-0.4-0.4-0.6-0.8-0.8c-0.3-0.2-0.7-0.3-1.2-0.3h-1.7v9.5
		c0,0.8,0.1,1.2,0.2,1.4c0.2,0.3,0.6,0.4,1.1,0.4h0.4v0.3h-5.3v-0.3h0.4c0.5,0,0.9-0.2,1.1-0.5c0.1-0.2,0.2-0.6,0.2-1.3v-9.5h-1.5
		c-0.6,0-1,0-1.2,0.1c-0.3,0.1-0.6,0.3-0.8,0.7s-0.4,0.8-0.4,1.3h-0.3l0.1-2.9H218z"/>
	<path class="st4" d="M229.6,100v4.9h2.7c0.7,0,1.2-0.1,1.4-0.3c0.3-0.3,0.5-0.8,0.5-1.5h0.3v4.3h-0.3c-0.1-0.6-0.2-1-0.3-1.2
		c-0.1-0.2-0.3-0.4-0.5-0.5c-0.2-0.1-0.6-0.2-1.2-0.2h-2.7v4.1c0,0.5,0,0.9,0.1,1c0,0.1,0.1,0.2,0.3,0.3s0.4,0.1,0.7,0.1h2.1
		c0.7,0,1.2,0,1.5-0.1s0.6-0.3,0.9-0.6c0.4-0.4,0.8-0.9,1.2-1.7h0.4l-1.1,3.1H226v-0.3h0.4c0.3,0,0.6-0.1,0.8-0.2
		c0.2-0.1,0.3-0.2,0.4-0.4c0.1-0.2,0.1-0.6,0.1-1.2v-8c0-0.8-0.1-1.3-0.2-1.5c-0.2-0.2-0.6-0.4-1.1-0.4H226v-0.3h9.5l0.1,2.7h-0.4
		c-0.1-0.7-0.3-1.1-0.4-1.3c-0.2-0.2-0.4-0.4-0.7-0.6c-0.2-0.1-0.7-0.1-1.3-0.1H229.6z"/>
	<path class="st4" d="M255.4,99.1l0.3,4.2h-0.3c-0.4-1.3-0.9-2.2-1.6-2.7c-0.7-0.6-1.5-0.8-2.5-0.8c-0.8,0-1.6,0.2-2.2,0.6
		c-0.7,0.4-1.2,1.1-1.6,2c-0.4,0.9-0.6,2-0.6,3.4c0,1.1,0.2,2.1,0.5,2.9c0.4,0.8,0.9,1.5,1.6,1.9c0.7,0.4,1.5,0.7,2.5,0.7
		c0.8,0,1.5-0.2,2.1-0.5c0.6-0.3,1.3-1,2-2.1l0.3,0.2c-0.6,1.1-1.3,1.9-2.2,2.4c-0.8,0.5-1.8,0.8-2.9,0.8c-2.1,0-3.6-0.8-4.8-2.3
		c-0.8-1.1-1.3-2.5-1.3-4c0-1.2,0.3-2.4,0.8-3.4c0.6-1,1.3-1.8,2.3-2.4c1-0.6,2-0.9,3.2-0.9c0.9,0,1.8,0.2,2.6,0.7
		c0.3,0.1,0.4,0.2,0.5,0.2c0.2,0,0.3-0.1,0.4-0.2c0.2-0.2,0.3-0.4,0.3-0.7H255.4z"/>
	<path class="st4" d="M267.5,105.1h5.8v-3.5c0-0.6,0-1.1-0.1-1.3c-0.1-0.2-0.2-0.3-0.4-0.4c-0.3-0.1-0.5-0.2-0.8-0.2h-0.4v-0.3h5.3
		v0.3h-0.4c-0.3,0-0.6,0.1-0.8,0.2c-0.2,0.1-0.3,0.2-0.4,0.4s-0.1,0.6-0.1,1.2v8c0,0.6,0,1,0.1,1.2c0.1,0.2,0.2,0.3,0.4,0.4
		c0.3,0.1,0.5,0.2,0.8,0.2h0.4v0.3h-5.3v-0.3h0.4c0.5,0,0.9-0.1,1.1-0.4c0.2-0.2,0.2-0.7,0.2-1.4v-3.8h-5.8v3.8c0,0.6,0,1,0.1,1.2
		c0.1,0.2,0.2,0.3,0.4,0.4c0.3,0.1,0.5,0.2,0.8,0.2h0.4v0.3h-5.3v-0.3h0.4c0.5,0,0.9-0.1,1.1-0.4c0.1-0.2,0.2-0.7,0.2-1.4v-8
		c0-0.6,0-1.1-0.1-1.3c-0.1-0.2-0.2-0.3-0.4-0.4c-0.3-0.1-0.5-0.2-0.8-0.2h-0.4v-0.3h5.3v0.3h-0.4c-0.3,0-0.6,0.1-0.8,0.2
		c-0.2,0.1-0.3,0.2-0.4,0.4s-0.1,0.6-0.1,1.2V105.1z"/>
	<path class="st4" d="M283.9,99.3h3.4l7.6,9.3v-7.1c0-0.8-0.1-1.2-0.3-1.4c-0.2-0.3-0.6-0.4-1.1-0.4h-0.4v-0.3h4.3v0.3H297
		c-0.5,0-0.9,0.2-1.1,0.5c-0.1,0.2-0.2,0.6-0.2,1.3v10.4h-0.3l-8.2-10v7.6c0,0.8,0.1,1.2,0.2,1.4c0.2,0.3,0.6,0.4,1.1,0.4h0.4v0.3
		h-4.3v-0.3h0.4c0.5,0,0.9-0.2,1.1-0.5c0.1-0.2,0.2-0.6,0.2-1.3V101c-0.4-0.4-0.6-0.7-0.8-0.8c-0.2-0.1-0.5-0.3-0.8-0.4
		c-0.2-0.1-0.4-0.1-0.8-0.1V99.3z"/>
	<path class="st4" d="M311.5,99.1c1.6,0,3,0.6,4.2,1.8c1.2,1.2,1.8,2.7,1.8,4.6c0,1.9-0.6,3.4-1.8,4.7s-2.6,1.9-4.3,1.9
		c-1.7,0-3.1-0.6-4.3-1.8c-1.2-1.2-1.7-2.8-1.7-4.7c0-2,0.7-3.6,2-4.8C308.5,99.6,309.9,99.1,311.5,99.1z M311.4,99.7
		c-1.1,0-2,0.4-2.7,1.2c-0.8,1-1.3,2.5-1.3,4.5c0,2,0.4,3.6,1.3,4.7c0.7,0.8,1.5,1.2,2.6,1.2c1.2,0,2.1-0.5,2.9-1.4
		c0.8-0.9,1.1-2.3,1.1-4.3c0-2.1-0.4-3.7-1.3-4.7C313.5,100.1,312.5,99.7,311.4,99.7z"/>
	<path class="st4" d="M336,108.3l0.3,0.1l-1.1,3.4h-9.6v-0.3h0.5c0.5,0,0.9-0.2,1.1-0.5c0.1-0.2,0.2-0.6,0.2-1.4v-8
		c0-0.8-0.1-1.3-0.3-1.5c-0.2-0.3-0.6-0.4-1.1-0.4h-0.5v-0.3h5.6v0.3c-0.7,0-1.1,0.1-1.4,0.2c-0.3,0.1-0.4,0.3-0.5,0.5
		c-0.1,0.2-0.1,0.7-0.1,1.4v7.8c0,0.5,0,0.9,0.1,1c0.1,0.1,0.2,0.2,0.3,0.3c0.2,0.1,0.6,0.1,1.4,0.1h0.9c0.9,0,1.6-0.1,2-0.2
		c0.4-0.1,0.7-0.4,1.1-0.7C335.3,109.6,335.6,109.1,336,108.3z"/>
	<path class="st4" d="M350.5,99.1c1.6,0,3,0.6,4.2,1.8c1.2,1.2,1.8,2.7,1.8,4.6c0,1.9-0.6,3.4-1.8,4.7s-2.6,1.9-4.3,1.9
		c-1.7,0-3.1-0.6-4.3-1.8c-1.2-1.2-1.7-2.8-1.7-4.7c0-2,0.7-3.6,2-4.8C347.5,99.6,348.9,99.1,350.5,99.1z M350.4,99.7
		c-1.1,0-2,0.4-2.7,1.2c-0.8,1-1.3,2.5-1.3,4.5c0,2,0.4,3.6,1.3,4.7c0.7,0.8,1.5,1.2,2.6,1.2c1.2,0,2.1-0.5,2.9-1.4
		c0.8-0.9,1.1-2.3,1.1-4.3c0-2.1-0.4-3.7-1.3-4.7C352.5,100.1,351.5,99.7,350.4,99.7z"/>
	<path class="st4" d="M375.7,99.1l0.3,3.9h-0.3c-0.3-1-0.7-1.7-1.3-2.2c-0.7-0.7-1.7-1.1-2.8-1.1c-1.6,0-2.8,0.6-3.6,1.9
		c-0.7,1.1-1,2.3-1,3.8c0,1.2,0.2,2.3,0.7,3.2c0.5,1,1.1,1.7,1.8,2.1c0.7,0.5,1.5,0.7,2.3,0.7c0.5,0,0.9-0.1,1.3-0.2
		c0.4-0.1,0.8-0.3,1.2-0.5v-3.6c0-0.6,0-1-0.1-1.2c-0.1-0.2-0.2-0.3-0.4-0.4c-0.2-0.1-0.5-0.2-1-0.2V105h4.8v0.3h-0.2
		c-0.5,0-0.8,0.2-1,0.5c-0.1,0.2-0.2,0.7-0.2,1.3v3.8c-0.7,0.4-1.4,0.7-2.1,0.8s-1.4,0.3-2.3,0.3c-2.4,0-4.2-0.8-5.5-2.3
		c-0.9-1.2-1.4-2.5-1.4-4c0-1.1,0.3-2.1,0.8-3.1c0.6-1.2,1.5-2.1,2.6-2.7c0.9-0.5,2-0.8,3.2-0.8c0.5,0,0.9,0,1.2,0.1
		c0.4,0.1,0.9,0.2,1.6,0.5c0.3,0.1,0.6,0.2,0.7,0.2c0.1,0,0.2-0.1,0.3-0.2c0.1-0.1,0.1-0.3,0.2-0.6H375.7z"/>
	<path class="st4" d="M393.7,99.3h4.3v0.3h-0.2c-0.2,0-0.4,0.1-0.7,0.2s-0.6,0.3-0.8,0.6c-0.2,0.3-0.6,0.7-0.9,1.3l-3,4.7v3.1
		c0,0.8,0.1,1.2,0.3,1.4c0.2,0.3,0.6,0.4,1.1,0.4h0.4v0.3h-5.3v-0.3h0.4c0.5,0,0.9-0.2,1.1-0.5c0.1-0.2,0.2-0.6,0.2-1.3v-2.9
		l-3.4-5.2c-0.4-0.6-0.7-1-0.8-1.1c-0.1-0.2-0.4-0.3-0.9-0.5c-0.1-0.1-0.3-0.1-0.5-0.1v-0.3h5.3v0.3H390c-0.3,0-0.5,0.1-0.8,0.2
		c-0.2,0.1-0.4,0.3-0.4,0.6c0,0.2,0.2,0.6,0.6,1.2l2.6,4l2.4-3.8c0.4-0.6,0.5-1,0.5-1.3c0-0.2,0-0.3-0.1-0.5
		c-0.1-0.1-0.2-0.2-0.4-0.3c-0.2-0.1-0.4-0.1-0.7-0.1V99.3z"/>
</g>
</svg>
